<svg width="24" height="25" viewBox="0 0 24 25" fill="none" xmlns="http://www.w3.org/2000/svg">
<path d="M16.25 4.06V4.51584L16.7039 4.55787C17.9607 4.67424 18.8395 5.10009 19.4285 5.72533C20.0186 6.3518 20.3659 7.22969 20.4607 8.33991C20.4603 8.34 20.4601 8.34 20.46 8.34H20.46H3.54161C3.54098 8.33968 3.54018 8.33918 3.53936 8.33853C3.63436 7.22896 3.98156 6.35154 4.57144 5.72533C5.16041 5.10009 6.0393 4.67424 7.29608 4.55787L7.74998 4.51584V4.06V2.5C7.74998 2.36614 7.86612 2.25 7.99998 2.25C8.13383 2.25 8.24998 2.36614 8.24998 2.5V4V4.5H8.74998H15.25H15.75V4V2.5C15.75 2.36614 15.8661 2.25 16 2.25C16.1338 2.25 16.25 2.36614 16.25 2.5V4.06Z" fill="#423F3C" stroke="#423F3C"/>
<path opacity="0.4" d="M20 10.8398C20.2739 10.8398 20.5 11.066 20.5 11.3398V17.4998C20.5 18.9232 20.1441 20.0329 19.4461 20.7846C18.7543 21.5296 17.6547 21.9998 16 21.9998H8C6.3453 21.9998 5.24565 21.5296 4.5539 20.7846C3.85591 20.0329 3.5 18.9232 3.5 17.4998V11.3398C3.5 11.066 3.72614 10.8398 4 10.8398H20Z" fill="#423F3C" stroke="#423F3C"/>
<path d="M8.5 14.9999C8.44582 14.9999 8.38112 14.987 8.3123 14.9584C8.25361 14.9339 8.19788 14.9003 8.14438 14.8555C8.09955 14.802 8.06598 14.7463 8.04153 14.6876C8.01285 14.6188 8 14.5541 8 14.4999C8 14.4457 8.01285 14.381 8.04153 14.3122C8.06598 14.2535 8.09955 14.1978 8.14438 14.1443C8.19788 14.0994 8.25361 14.0659 8.3123 14.0414C8.42923 13.9927 8.57077 13.9927 8.6877 14.0414C8.74639 14.0659 8.80212 14.0994 8.85562 14.1443C8.90045 14.1978 8.93402 14.2535 8.95847 14.3122C8.98715 14.381 9 14.4457 9 14.4999C9 14.5541 8.98715 14.6188 8.95847 14.6876C8.93402 14.7463 8.90045 14.802 8.85562 14.8555C8.80212 14.9003 8.74639 14.9339 8.6877 14.9584C8.61888 14.987 8.55418 14.9999 8.5 14.9999Z" fill="#423F3C" stroke="#423F3C"/>
<path d="M11.8123 14.0416L11.8204 14.0382L11.8283 14.0346C11.9361 13.9852 12.0639 13.9852 12.1717 14.0346L12.1796 14.0382L12.1877 14.0416C12.248 14.0667 12.3052 14.1015 12.36 14.1481C12.4499 14.2499 12.5 14.382 12.5 14.5001C12.5 14.6181 12.4499 14.7502 12.36 14.852C12.3052 14.8987 12.248 14.9334 12.1877 14.9585C12.1189 14.9872 12.0542 15.0001 12 15.0001C11.9458 15.0001 11.8811 14.9872 11.8123 14.9585C11.752 14.9334 11.6948 14.8987 11.64 14.852C11.5501 14.7502 11.5 14.6181 11.5 14.5001C11.5 14.382 11.5501 14.2499 11.64 14.1481C11.6948 14.1015 11.752 14.0667 11.8123 14.0416Z" fill="#423F3C" stroke="#423F3C"/>
<path d="M8.5 18.4999C8.44582 18.4999 8.38112 18.487 8.3123 18.4584C8.25201 18.4332 8.19484 18.3985 8.14 18.3518C8.05014 18.2501 8 18.1179 8 17.9999C8 17.8819 8.05014 17.7497 8.14 17.648C8.19484 17.6013 8.25201 17.5665 8.3123 17.5414C8.42923 17.4927 8.57077 17.4927 8.6877 17.5414C8.74799 17.5665 8.80516 17.6013 8.86 17.648C8.94986 17.7497 9 17.8819 9 17.9999C9 18.1179 8.94986 18.2501 8.86 18.3518C8.80516 18.3985 8.74799 18.4332 8.6877 18.4584C8.61888 18.487 8.55418 18.4999 8.5 18.4999Z" fill="#423F3C" stroke="#423F3C"/>
</svg>
