<svg width="204" height="63" viewBox="0 0 204 63" fill="none" xmlns="http://www.w3.org/2000/svg">
<g clip-path="url(#clip0_87_18737)">
<path d="M193.5 0.235352H11.6404C6.11753 0.235352 1.64038 4.71251 1.64038 10.2354V52.2354C1.64038 57.7582 6.11754 62.2354 11.6404 62.2354H193.5C199.023 62.2354 203.5 57.7582 203.5 52.2353V10.2354C203.5 4.7125 199.023 0.235352 193.5 0.235352Z" fill="#3C1C46"/>
<path d="M42.8046 29.6709C42.7587 24.7823 46.9876 22.4039 47.181 22.2932C44.7859 18.9517 41.0737 18.4952 39.7692 18.4588C36.6514 18.1448 33.6271 20.244 32.0389 20.244C30.419 20.244 27.9732 18.4891 25.3373 18.5407C21.9453 18.5907 18.772 20.47 17.0316 23.3883C13.4399 29.3387 16.1186 38.083 19.5598 42.8927C21.2811 45.2483 23.2926 47.8784 25.9254 47.7859C28.5011 47.6843 29.4632 46.2145 32.5715 46.2145C35.6513 46.2145 36.5547 47.7859 39.2398 47.7267C42.0042 47.6843 43.7446 45.3606 45.4057 42.9837C47.395 40.2839 48.1938 37.6249 48.2255 37.4884C48.1605 37.4672 42.8569 35.5302 42.8046 29.6709Z" fill="white"/>
<path d="M37.7322 15.2947C39.1176 13.6368 40.0655 11.3814 39.8023 9.09253C37.7972 9.17747 35.2897 10.4197 33.8457 12.0412C32.5681 13.47 31.4269 15.8119 31.7217 18.0143C33.9741 18.1751 36.2867 16.9267 37.7322 15.2947Z" fill="white"/>
<path d="M80.0806 47.4474H76.4809L74.5091 41.5183H67.6553L65.777 47.4474H62.2725L69.0628 27.262H73.2569L80.0806 47.4474ZM73.9147 39.0307L72.1315 33.7599C71.9429 33.2214 71.5894 31.9534 71.0679 29.9573H71.0045C70.7969 30.8158 70.4624 32.0838 70.0028 33.7599L68.2513 39.0307H73.9147Z" fill="white"/>
<path d="M97.5433 39.9909C97.5433 42.4663 96.8443 44.4229 95.4462 45.8594C94.194 47.138 92.6391 47.7766 90.783 47.7766C88.7795 47.7766 87.3403 47.0879 86.4637 45.7107H86.4003V53.3781H83.021V37.6839C83.021 36.1276 82.9782 34.5304 82.8958 32.8923H85.8677L86.0564 35.1994H86.1198C87.2467 33.4611 88.957 32.5935 91.2522 32.5935C93.0465 32.5935 94.5443 33.2715 95.7426 34.629C96.9441 35.9881 97.5433 37.7749 97.5433 39.9909ZM94.1005 40.1092C94.1005 38.6925 93.7677 37.5246 93.0988 36.6054C92.3681 35.6468 91.3869 35.1675 90.1569 35.1675C89.3232 35.1675 88.5655 35.4345 87.8887 35.9608C87.2103 36.4917 86.7665 37.1848 86.5588 38.0433C86.4542 38.4438 86.4019 38.7714 86.4019 39.0292V41.4561C86.4019 42.5148 86.7411 43.4082 87.4195 44.1378C88.0979 44.8674 88.9792 45.2314 90.0634 45.2314C91.3362 45.2314 92.3268 44.7612 93.0354 43.8238C93.7455 42.8849 94.1005 41.6472 94.1005 40.1092Z" fill="white"/>
<path d="M115.037 39.9909C115.037 42.4663 114.338 44.4229 112.938 45.8594C111.688 47.138 110.133 47.7766 108.277 47.7766C106.273 47.7766 104.834 47.0879 103.959 45.7107H103.896V53.3781H100.516V37.6839C100.516 36.1276 100.474 34.5304 100.391 32.8923H103.363L103.552 35.1994H103.615C104.741 33.4611 106.451 32.5935 108.748 32.5935C110.54 32.5935 112.038 33.2715 113.24 34.629C114.436 35.9881 115.037 37.7749 115.037 39.9909ZM111.594 40.1092C111.594 38.6925 111.26 37.5246 110.591 36.6054C109.86 35.6468 108.882 35.1675 107.651 35.1675C106.815 35.1675 106.059 35.4345 105.381 35.9608C104.702 36.4917 104.26 37.1848 104.053 38.0433C103.95 38.4438 103.896 38.7714 103.896 39.0292V41.4561C103.896 42.5148 104.235 43.4082 104.91 44.1378C105.589 44.8659 106.47 45.2314 107.557 45.2314C108.83 45.2314 109.821 44.7612 110.529 43.8238C111.239 42.8849 111.594 41.6472 111.594 40.1092Z" fill="white"/>
<path d="M134.597 41.7869C134.597 43.5039 133.974 44.9008 132.723 45.9793C131.349 47.1578 129.436 47.7463 126.978 47.7463C124.708 47.7463 122.888 47.3277 121.511 46.4889L122.294 43.7936C123.777 44.6521 125.405 45.0828 127.179 45.0828C128.452 45.0828 129.442 44.8068 130.154 44.2577C130.863 43.7086 131.216 42.9715 131.216 42.0523C131.216 41.2332 130.924 40.5431 130.34 39.9834C129.758 39.4237 128.786 38.9034 127.429 38.4226C123.736 37.1045 121.891 35.1737 121.891 32.6346C121.891 30.9752 122.538 29.6146 123.833 28.5559C125.123 27.4957 126.844 26.9663 128.997 26.9663C130.916 26.9663 132.511 27.2864 133.784 27.9249L132.939 30.5611C131.75 29.9423 130.406 29.6328 128.902 29.6328C127.713 29.6328 126.784 29.9134 126.119 30.4716C125.556 30.9706 125.274 31.5789 125.274 32.2993C125.274 33.0972 125.595 33.757 126.242 34.2757C126.805 34.755 127.827 35.2738 129.311 35.8335C131.126 36.5327 132.459 37.3503 133.316 38.2876C134.171 39.222 134.597 40.3914 134.597 41.7869Z" fill="white"/>
<path d="M145.77 35.3194H142.045V42.3861C142.045 44.1835 142.701 45.0814 144.017 45.0814C144.621 45.0814 145.122 45.0314 145.518 44.9313L145.611 47.387C144.946 47.6251 144.069 47.7449 142.983 47.7449C141.649 47.7449 140.606 47.3551 139.853 46.577C139.103 45.7974 138.726 44.4899 138.726 42.6531V35.3163H136.507V32.8895H138.726V30.2245L142.045 29.2659V32.8895H145.77V35.3194Z" fill="white"/>
<path d="M162.576 40.0502C162.576 42.2875 161.907 44.1243 160.572 45.5607C159.173 47.0396 157.315 47.7768 154.999 47.7768C152.768 47.7768 150.991 47.0684 149.666 45.6517C148.341 44.2351 147.678 42.4468 147.678 40.2914C147.678 38.0359 148.36 36.1885 149.727 34.7521C151.092 33.3142 152.934 32.5952 155.25 32.5952C157.482 32.5952 159.277 33.3036 160.633 34.7218C161.929 36.0975 162.576 37.8736 162.576 40.0502ZM159.07 40.1549C159.07 38.8125 158.77 37.6613 158.163 36.7012C157.455 35.5393 156.442 34.9599 155.129 34.9599C153.771 34.9599 152.739 35.5408 152.031 36.7012C151.423 37.6628 151.124 38.8323 151.124 40.2156C151.124 41.5579 151.423 42.7092 152.031 43.6678C152.761 44.8296 153.782 45.4091 155.099 45.4091C156.389 45.4091 157.402 44.8175 158.133 43.6375C158.756 42.6591 159.07 41.4957 159.07 40.1549Z" fill="white"/>
<path d="M173.561 35.7363C173.227 35.6771 172.87 35.6468 172.496 35.6468C171.307 35.6468 170.388 36.0761 169.741 36.9361C169.179 37.6945 168.896 38.6531 168.896 39.8104V47.4474H165.519L165.55 37.4761C165.55 35.7985 165.508 34.2711 165.424 32.8938H168.367L168.491 35.6787H168.584C168.941 34.7216 169.504 33.951 170.274 33.3731C171.027 32.8529 171.84 32.5935 172.716 32.5935C173.029 32.5935 173.311 32.6147 173.561 32.6527V35.7363Z" fill="white"/>
<path d="M188.674 39.4815C188.674 40.0609 188.635 40.5493 188.551 40.9482H178.413C178.452 42.3861 178.942 43.4858 179.884 44.2442C180.738 44.9222 181.843 45.2619 183.2 45.2619C184.701 45.2619 186.07 45.0329 187.302 44.5733L187.831 46.8182C186.392 47.4188 184.693 47.7176 182.732 47.7176C180.373 47.7176 178.522 47.0533 177.175 45.7261C175.831 44.3989 175.157 42.6167 175.157 40.3809C175.157 38.1861 175.783 36.3584 177.037 34.9007C178.349 33.3445 180.123 32.5664 182.355 32.5664C184.547 32.5664 186.206 33.3445 187.333 34.9007C188.226 36.1369 188.674 37.6659 188.674 39.4815ZM185.452 38.6427C185.474 37.6841 185.254 36.8559 184.796 36.1566C184.211 35.2572 183.312 34.8082 182.103 34.8082C180.998 34.8082 180.099 35.2466 179.413 36.1263C178.85 36.8256 178.516 37.6643 178.413 38.6411H185.452V38.6427Z" fill="white"/>
<path d="M72.7971 14.8442C72.7971 16.6295 72.2376 17.9734 71.1202 18.8759C70.0851 19.7086 68.6142 20.1257 66.7089 20.1257C65.7643 20.1257 64.9559 20.0863 64.2791 20.0074V10.2529C65.1619 10.1164 66.113 10.0466 67.1401 10.0466C68.955 10.0466 70.3229 10.4243 71.2454 11.1797C72.2788 12.0336 72.7971 13.2546 72.7971 14.8442ZM71.0457 14.8882C71.0457 13.7309 70.7255 12.8436 70.0851 12.2247C69.4448 11.6074 68.5096 11.298 67.278 11.298C66.7549 11.298 66.3095 11.3314 65.9402 11.4011V18.8167C66.1447 18.847 66.5187 18.8607 67.0624 18.8607C68.3336 18.8607 69.3148 18.5225 70.0059 17.846C70.697 17.1695 71.0457 16.1836 71.0457 14.8882Z" fill="white"/>
<path d="M82.0841 16.4035C82.0841 17.5031 81.756 18.4041 81.0998 19.1109C80.4118 19.8375 79.5004 20.2 78.3624 20.2C77.2655 20.2 76.3921 19.8527 75.7407 19.1549C75.0908 18.4587 74.7659 17.5805 74.7659 16.5218C74.7659 15.4145 75.1003 14.506 75.7724 13.8007C76.4444 13.0954 77.3479 12.7419 78.486 12.7419C79.5829 12.7419 80.4641 13.0893 81.1315 13.7855C81.7655 14.462 82.0841 15.3357 82.0841 16.4035ZM80.3611 16.455C80.3611 15.7952 80.2121 15.2295 79.9157 14.7578C79.567 14.1874 79.0709 13.9023 78.4258 13.9023C77.7585 13.9023 77.2512 14.1874 76.9025 14.7578C76.6045 15.2295 76.4571 15.8043 76.4571 16.4839C76.4571 17.1437 76.6061 17.7094 76.9025 18.1812C77.2623 18.7515 77.7632 19.0366 78.4099 19.0366C79.0439 19.0366 79.5416 18.7469 79.8999 18.166C80.2074 17.6852 80.3611 17.1148 80.3611 16.455Z" fill="white"/>
<path d="M94.5361 12.8875L92.1982 20.0376H90.6765L89.7081 16.9327C89.4624 16.1576 89.2627 15.3871 89.1073 14.6227H89.0772C88.933 15.4084 88.7333 16.1774 88.4765 16.9327L87.4478 20.0376H85.9087L83.7102 12.8875H85.4173L86.2621 16.2866C86.4666 17.0905 86.6346 17.8565 86.7694 18.5815H86.7995C86.9231 17.9839 87.1276 17.2224 87.4161 16.3017L88.4765 12.889H89.8301L90.8461 16.2289C91.0918 17.0435 91.2915 17.8276 91.4453 18.583H91.4913C91.6038 17.8474 91.7734 17.0632 91.9985 16.2289L92.9051 12.889H94.5361V12.8875Z" fill="white"/>
<path d="M103.148 20.0376H101.486V15.9423C101.486 14.6803 100.986 14.0493 99.9806 14.0493C99.4877 14.0493 99.0899 14.2222 98.7808 14.5696C98.4748 14.9169 98.3195 15.3265 98.3195 15.7952V20.0361H96.6584V14.9306C96.6584 14.3026 96.6378 13.6216 96.5981 12.8844H98.058L98.1357 14.0023H98.1816C98.375 13.655 98.6635 13.3683 99.0423 13.1393C99.4925 12.8723 99.9965 12.7373 100.548 12.7373C101.246 12.7373 101.826 12.9527 102.287 13.385C102.861 13.9143 103.148 14.7046 103.148 15.7542V20.0376Z" fill="white"/>
<path d="M107.729 20.0377H106.069V9.60669H107.729V20.0377Z" fill="white"/>
<path d="M117.508 16.4035C117.508 17.5031 117.18 18.4041 116.524 19.1109C115.836 19.8375 114.923 20.2 113.786 20.2C112.688 20.2 111.815 19.8527 111.165 19.1549C110.515 18.4587 110.19 17.5805 110.19 16.5218C110.19 15.4145 110.524 14.506 111.196 13.8007C111.869 13.0954 112.772 12.7419 113.908 12.7419C115.007 12.7419 115.887 13.0893 116.556 13.7855C117.19 14.462 117.508 15.3357 117.508 16.4035ZM115.784 16.455C115.784 15.7952 115.635 15.2295 115.338 14.7578C114.991 14.1874 114.493 13.9023 113.85 13.9023C113.181 13.9023 112.674 14.1874 112.327 14.7578C112.029 15.2295 111.881 15.8043 111.881 16.4839C111.881 17.1437 112.03 17.7094 112.327 18.1812C112.686 18.7515 113.187 19.0366 113.834 19.0366C114.468 19.0366 114.964 18.7469 115.322 18.166C115.631 17.6852 115.784 17.1148 115.784 16.455Z" fill="white"/>
<path d="M125.548 20.0377H124.056L123.933 19.2141H123.887C123.376 19.8709 122.649 20.2 121.704 20.2C120.999 20.2 120.428 19.9831 119.999 19.5523C119.609 19.161 119.414 18.6741 119.414 18.0962C119.414 17.2225 119.794 16.5567 120.56 16.0956C121.324 15.6345 122.398 15.4085 123.782 15.4191V15.2856C123.782 14.3437 123.266 13.8735 122.23 13.8735C121.493 13.8735 120.844 14.0509 120.282 14.4028L119.945 13.3593C120.639 12.9482 121.497 12.7419 122.508 12.7419C124.461 12.7419 125.44 13.7279 125.44 15.6997V18.3328C125.44 19.0472 125.477 19.616 125.548 20.0377ZM123.823 17.5805V16.4778C121.991 16.4475 121.075 16.9283 121.075 17.9187C121.075 18.2919 121.18 18.571 121.394 18.7575C121.608 18.9441 121.88 19.0366 122.205 19.0366C122.57 19.0366 122.91 18.9259 123.221 18.706C123.533 18.4845 123.725 18.2039 123.796 17.8596C123.814 17.7822 123.823 17.6882 123.823 17.5805Z" fill="white"/>
<path d="M134.987 20.0377H133.513L133.435 18.8894H133.389C132.918 19.7631 132.116 20.2 130.989 20.2C130.089 20.2 129.339 19.8617 128.745 19.1852C128.15 18.5087 127.854 17.6305 127.854 16.5521C127.854 15.3948 128.176 14.4574 128.822 13.7415C129.449 13.0741 130.216 12.7404 131.129 12.7404C132.132 12.7404 132.834 13.0635 133.234 13.7111H133.265V9.60669H134.928V18.1113C134.928 18.8075 134.947 19.4491 134.987 20.0377ZM133.265 17.0223V15.8301C133.265 15.6238 133.25 15.4569 133.219 15.3295C133.126 14.9473 132.925 14.6257 132.619 14.3664C132.31 14.107 131.937 13.9766 131.508 13.9766C130.888 13.9766 130.403 14.2117 130.046 14.6834C129.693 15.1551 129.514 15.7573 129.514 16.4929C129.514 17.1997 129.683 17.7731 130.024 18.2145C130.384 18.6847 130.869 18.9198 131.476 18.9198C132.021 18.9198 132.457 18.7241 132.788 18.3313C133.108 17.9688 133.265 17.5319 133.265 17.0223Z" fill="white"/>
<path d="M149.193 16.4035C149.193 17.5031 148.865 18.4041 148.209 19.1109C147.521 19.8375 146.611 20.2 145.472 20.2C144.376 20.2 143.503 19.8527 142.85 19.1549C142.2 18.4587 141.875 17.5805 141.875 16.5218C141.875 15.4145 142.21 14.506 142.882 13.8007C143.554 13.0954 144.457 12.7419 145.597 12.7419C146.692 12.7419 147.575 13.0893 148.241 13.7855C148.875 14.462 149.193 15.3357 149.193 16.4035ZM147.472 16.455C147.472 15.7952 147.323 15.2295 147.027 14.7578C146.676 14.1874 146.182 13.9023 145.535 13.9023C144.869 13.9023 144.362 14.1874 144.012 14.7578C143.714 15.2295 143.567 15.8043 143.567 16.4839C143.567 17.1437 143.715 17.7094 144.012 18.1812C144.372 18.7515 144.873 19.0366 145.519 19.0366C146.153 19.0366 146.653 18.7469 147.011 18.166C147.317 17.6852 147.472 17.1148 147.472 16.455Z" fill="white"/>
<path d="M158.125 20.0376H156.466V15.9423C156.466 14.6803 155.965 14.0493 154.958 14.0493C154.465 14.0493 154.068 14.2222 153.76 14.5696C153.453 14.9169 153.299 15.3265 153.299 15.7952V20.0361H151.636V14.9306C151.636 14.3026 151.617 13.6216 151.577 12.8844H153.036L153.113 14.0023H153.159C153.354 13.655 153.643 13.3683 154.02 13.1393C154.472 12.8723 154.974 12.7373 155.527 12.7373C156.223 12.7373 156.803 12.9527 157.265 13.385C157.84 13.9143 158.125 14.7046 158.125 15.7542V20.0376Z" fill="white"/>
<path d="M169.305 14.0781H167.475V17.5515C167.475 18.4343 167.8 18.8757 168.444 18.8757C168.742 18.8757 168.989 18.8514 169.184 18.8014L169.227 20.0072C168.899 20.1255 168.468 20.1847 167.937 20.1847C167.28 20.1847 166.77 19.9936 166.401 19.6113C166.03 19.2291 165.846 18.586 165.846 17.6835V14.0781H164.754V12.8874H165.846V11.5769L167.474 11.1067V12.8859H169.303V14.0781H169.305Z" fill="white"/>
<path d="M178.099 20.0377H176.436V15.9727C176.436 14.691 175.935 14.0494 174.932 14.0494C174.161 14.0494 173.635 14.421 173.347 15.1642C173.297 15.3204 173.269 15.5116 173.269 15.736V20.0361H171.609V9.60669H173.269V13.9159H173.301C173.824 13.1317 174.573 12.7404 175.545 12.7404C176.233 12.7404 176.802 12.9558 177.254 13.388C177.816 13.9265 178.099 14.7274 178.099 15.7861V20.0377Z" fill="white"/>
<path d="M187.17 16.1244C187.17 16.4095 187.148 16.6492 187.108 16.8448H182.126C182.148 17.5517 182.386 18.0901 182.847 18.4633C183.269 18.7969 183.813 18.9638 184.478 18.9638C185.215 18.9638 185.888 18.8516 186.493 18.6256L186.753 19.7298C186.044 20.024 185.211 20.1712 184.245 20.1712C183.088 20.1712 182.177 19.8451 181.518 19.1928C180.855 18.5406 180.527 17.6654 180.527 16.5673C180.527 15.4888 180.833 14.5909 181.449 13.875C182.093 13.1105 182.963 12.7283 184.062 12.7283C185.136 12.7283 185.953 13.1105 186.504 13.875C186.95 14.4817 187.17 15.2325 187.17 16.1244ZM185.585 15.7133C185.597 15.2416 185.488 14.8351 185.263 14.4923C184.975 14.0509 184.535 13.8295 183.941 13.8295C183.399 13.8295 182.957 14.0448 182.619 14.4771C182.343 14.8214 182.18 15.2325 182.126 15.7133H185.585Z" fill="white"/>
</g>
<defs>
<clipPath id="clip0_87_18737">
<rect x="0.5" y="0.235352" width="203" height="62" rx="12" fill="white"/>
</clipPath>
</defs>
</svg>
