<svg width="57" height="56" viewBox="0 0 57 56" fill="none" xmlns="http://www.w3.org/2000/svg">
<rect x="0.833496" y="0.5" width="55" height="55" rx="15.5" fill="white"/>
<rect x="0.833496" y="0.5" width="55" height="55" rx="15.5" stroke="#EAEAE9"/>
<path d="M30.0835 26.5C29.2535 26.5 28.5835 25.83 28.5835 25C28.5835 24.17 29.2535 23.5 30.0835 23.5C30.9135 23.5 31.5835 24.17 31.5835 25C31.5835 25.83 30.9135 26.5 30.0835 26.5ZM30.0835 24.5C29.8035 24.5 29.5835 24.72 29.5835 25C29.5835 25.28 29.8035 25.5 30.0835 25.5C30.3635 25.5 30.5835 25.28 30.5835 25C30.5835 24.72 30.3635 24.5 30.0835 24.5Z" fill="#78378B"/>
<path d="M26.5835 26.5C25.7535 26.5 25.0835 25.83 25.0835 25C25.0835 24.17 25.7535 23.5 26.5835 23.5C27.4135 23.5 28.0835 24.17 28.0835 25C28.0835 25.83 27.4135 26.5 26.5835 26.5ZM26.5835 24.5C26.3035 24.5 26.0835 24.72 26.0835 25C26.0835 25.28 26.3035 25.5 26.5835 25.5C26.8635 25.5 27.0835 25.28 27.0835 25C27.0835 24.72 26.8635 24.5 26.5835 24.5Z" fill="#78378B"/>
<path d="M31.8335 29.5C31.0035 29.5 30.3335 28.83 30.3335 28C30.3335 27.17 31.0035 26.5 31.8335 26.5C32.6635 26.5 33.3335 27.17 33.3335 28C33.3335 28.83 32.6635 29.5 31.8335 29.5ZM31.8335 27.5C31.5535 27.5 31.3335 27.72 31.3335 28C31.3335 28.28 31.5535 28.5 31.8335 28.5C32.1135 28.5 32.3335 28.28 32.3335 28C32.3335 27.72 32.1135 27.5 31.8335 27.5Z" fill="#78378B"/>
<path d="M33.4834 26.25C32.7934 26.25 32.2334 25.69 32.2334 25C32.2334 24.31 32.7934 23.75 33.4834 23.75C34.1734 23.75 34.7334 24.31 34.7334 25C34.7334 25.69 34.1734 26.25 33.4834 26.25ZM33.4834 24.75C33.3434 24.75 33.2334 24.86 33.2334 25C33.2334 25.28 33.7334 25.28 33.7334 25C33.7334 24.86 33.6234 24.75 33.4834 24.75Z" fill="#78378B"/>
<path d="M33.4834 32.25C32.7934 32.25 32.2334 31.69 32.2334 31C32.2334 30.31 32.7934 29.75 33.4834 29.75C34.1734 29.75 34.7334 30.31 34.7334 31C34.7334 31.69 34.1734 32.25 33.4834 32.25ZM33.4834 30.75C33.3434 30.75 33.2334 30.86 33.2334 31C33.2334 31.28 33.7334 31.28 33.7334 31C33.7334 30.86 33.6234 30.75 33.4834 30.75Z" fill="#78378B"/>
<path d="M36.0835 29.25C35.3935 29.25 34.8335 28.69 34.8335 28C34.8335 27.31 35.3935 26.75 36.0835 26.75C36.7735 26.75 37.3335 27.31 37.3335 28C37.3335 28.69 36.7735 29.25 36.0835 29.25ZM36.0835 27.75C35.9435 27.75 35.8335 27.86 35.8335 28C35.8335 28.28 36.3335 28.28 36.3335 28C36.3335 27.86 36.2235 27.75 36.0835 27.75Z" fill="#78378B"/>
<path d="M23.1333 26.25C22.4433 26.25 21.8833 25.69 21.8833 25C21.8833 24.31 22.4433 23.75 23.1333 23.75C23.8233 23.75 24.3833 24.31 24.3833 25C24.3833 25.69 23.8233 26.25 23.1333 26.25ZM23.1333 24.75C22.9933 24.75 22.8833 24.86 22.8833 25C22.8833 25.28 23.3833 25.28 23.3833 25C23.3833 24.86 23.2733 24.75 23.1333 24.75Z" fill="#78378B"/>
<path d="M23.1333 32.25C22.4433 32.25 21.8833 31.69 21.8833 31C21.8833 30.31 22.4433 29.75 23.1333 29.75C23.8233 29.75 24.3833 30.31 24.3833 31C24.3833 31.69 23.8233 32.25 23.1333 32.25ZM23.1333 30.75C22.9933 30.75 22.8833 30.86 22.8833 31C22.8833 31.28 23.3833 31.28 23.3833 31C23.3833 30.86 23.2733 30.75 23.1333 30.75Z" fill="#78378B"/>
<path d="M20.5337 29.25C19.8437 29.25 19.2837 28.69 19.2837 28C19.2837 27.31 19.8437 26.75 20.5337 26.75C21.2237 26.75 21.7837 27.31 21.7837 28C21.7837 28.69 21.2237 29.25 20.5337 29.25ZM20.5337 27.75C20.3937 27.75 20.2837 27.86 20.2837 28C20.2837 28.28 20.7837 28.28 20.7837 28C20.7837 27.86 20.6737 27.75 20.5337 27.75Z" fill="#78378B"/>
<path d="M32.2334 22.45C31.5434 22.45 30.9834 21.89 30.9834 21.2C30.9834 20.51 31.5434 19.95 32.2334 19.95C32.9234 19.95 33.4834 20.51 33.4834 21.2C33.4834 21.89 32.9234 22.45 32.2334 22.45ZM32.2334 20.95C32.0934 20.95 31.9834 21.06 31.9834 21.2C31.9834 21.48 32.4834 21.48 32.4834 21.2C32.4834 21.06 32.3734 20.95 32.2334 20.95Z" fill="#78378B"/>
<path d="M24.4336 22.45C23.7436 22.45 23.1836 21.89 23.1836 21.2C23.1836 20.51 23.7436 19.95 24.4336 19.95C25.1236 19.95 25.6836 20.51 25.6836 21.2C25.6836 21.89 25.1236 22.45 24.4336 22.45ZM24.4336 20.95C24.2936 20.95 24.1836 21.06 24.1836 21.2C24.1836 21.48 24.6836 21.48 24.6836 21.2C24.6836 21.06 24.5736 20.95 24.4336 20.95Z" fill="#78378B"/>
<path d="M28.3833 23.25C27.6933 23.25 27.1333 22.69 27.1333 22C27.1333 21.31 27.6933 20.75 28.3833 20.75C29.0733 20.75 29.6333 21.31 29.6333 22C29.6333 22.69 29.0733 23.25 28.3833 23.25ZM28.3833 21.75C28.2433 21.75 28.1333 21.86 28.1333 22C28.1333 22.28 28.6333 22.28 28.6333 22C28.6333 21.86 28.5233 21.75 28.3833 21.75Z" fill="#78378B"/>
<path d="M32.2334 36.25C31.5434 36.25 30.9834 35.69 30.9834 35C30.9834 34.31 31.5434 33.75 32.2334 33.75C32.9234 33.75 33.4834 34.31 33.4834 35C33.4834 35.69 32.9234 36.25 32.2334 36.25ZM32.2334 34.75C32.0934 34.75 31.9834 34.86 31.9834 35C31.9834 35.28 32.4834 35.28 32.4834 35C32.4834 34.86 32.3734 34.75 32.2334 34.75Z" fill="#78378B"/>
<path d="M24.4336 36.25C23.7436 36.25 23.1836 35.69 23.1836 35C23.1836 34.31 23.7436 33.75 24.4336 33.75C25.1236 33.75 25.6836 34.31 25.6836 35C25.6836 35.69 25.1236 36.25 24.4336 36.25ZM24.4336 34.75C24.2936 34.75 24.1836 34.86 24.1836 35C24.1836 35.28 24.6836 35.28 24.6836 35C24.6836 34.86 24.5736 34.75 24.4336 34.75Z" fill="#78378B"/>
<path d="M28.3833 35.45C27.6933 35.45 27.1333 34.89 27.1333 34.2C27.1333 33.51 27.6933 32.95 28.3833 32.95C29.0733 32.95 29.6333 33.51 29.6333 34.2C29.6333 34.89 29.0733 35.45 28.3833 35.45ZM28.3833 33.95C28.2433 33.95 28.1333 34.06 28.1333 34.2C28.1333 34.48 28.6333 34.48 28.6333 34.2C28.6333 34.06 28.5233 33.95 28.3833 33.95Z" fill="#78378B"/>
<path d="M24.8335 29.5C24.0035 29.5 23.3335 28.83 23.3335 28C23.3335 27.17 24.0035 26.5 24.8335 26.5C25.6635 26.5 26.3335 27.17 26.3335 28C26.3335 28.83 25.6635 29.5 24.8335 29.5ZM24.8335 27.5C24.5535 27.5 24.3335 27.72 24.3335 28C24.3335 28.28 24.5535 28.5 24.8335 28.5C25.1135 28.5 25.3335 28.28 25.3335 28C25.3335 27.72 25.1135 27.5 24.8335 27.5Z" fill="#78378B"/>
<path d="M26.5835 32.5C25.7535 32.5 25.0835 31.83 25.0835 31C25.0835 30.17 25.7535 29.5 26.5835 29.5C27.4135 29.5 28.0835 30.17 28.0835 31C28.0835 31.83 27.4135 32.5 26.5835 32.5ZM26.5835 30.5C26.3035 30.5 26.0835 30.72 26.0835 31C26.0835 31.28 26.3035 31.5 26.5835 31.5C26.8635 31.5 27.0835 31.28 27.0835 31C27.0835 30.72 26.8635 30.5 26.5835 30.5Z" fill="#78378B"/>
<path d="M30.0835 32.5C29.2535 32.5 28.5835 31.83 28.5835 31C28.5835 30.17 29.2535 29.5 30.0835 29.5C30.9135 29.5 31.5835 30.17 31.5835 31C31.5835 31.83 30.9135 32.5 30.0835 32.5ZM30.0835 30.5C29.8035 30.5 29.5835 30.72 29.5835 31C29.5835 31.28 29.8035 31.5 30.0835 31.5C30.3635 31.5 30.5835 31.28 30.5835 31C30.5835 30.72 30.3635 30.5 30.0835 30.5Z" fill="#78378B"/>
<path d="M28.3333 19.45C27.7733 19.45 27.3232 19 27.3232 18.45C27.3232 17.9 27.7732 17.45 28.3232 17.45C28.8732 17.45 29.3232 17.9 29.3232 18.45C29.3232 19 28.8933 19.45 28.3333 19.45Z" fill="#78378B"/>
<path d="M33.5833 19.6C33.1633 19.6 32.8232 19.26 32.8232 18.85C32.8232 18.44 33.1632 18.1 33.5732 18.1C33.9832 18.1 34.3333 18.44 34.3333 18.85C34.3333 19.26 34.0033 19.6 33.5833 19.6Z" fill="#78378B"/>
<path d="M23.0835 19.6C22.6735 19.6 22.3335 19.26 22.3335 18.85C22.3335 18.44 22.6635 18.1 23.0835 18.1H23.0935C23.5035 18.1 23.8435 18.44 23.8435 18.85C23.8435 19.26 23.5035 19.6 23.0835 19.6Z" fill="#78378B"/>
<path d="M28.3333 38.5C27.7733 38.5 27.3232 38.05 27.3232 37.5C27.3232 36.95 27.7732 36.5 28.3232 36.5C28.8732 36.5 29.3232 36.95 29.3232 37.5C29.3232 38.05 28.8933 38.5 28.3333 38.5Z" fill="#78378B"/>
<path d="M33.5833 37.85C33.1633 37.85 32.8232 37.51 32.8232 37.1C32.8232 36.69 33.1632 36.35 33.5732 36.35C33.9832 36.35 34.3333 36.69 34.3333 37.1C34.3333 37.51 34.0033 37.85 33.5833 37.85Z" fill="#78378B"/>
<path d="M23.0835 37.85C22.6735 37.85 22.3335 37.51 22.3335 37.1C22.3335 36.69 22.6635 36.35 23.0835 36.35H23.0935C23.5035 36.35 23.8435 36.69 23.8435 37.1C23.8435 37.51 23.5035 37.85 23.0835 37.85Z" fill="#78378B"/>
<path d="M17.8833 29C17.3333 29 16.8833 28.56 16.8833 28C16.8833 27.45 17.3333 27 17.8833 27C18.4333 27 18.8833 27.45 18.8833 28C18.8833 28.55 18.4333 29 17.8833 29Z" fill="#78378B"/>
<path d="M20.0835 33.75C19.6735 33.75 19.3335 33.42 19.3335 33V32.99C19.3335 32.58 19.6735 32.24 20.0835 32.24C20.4935 32.24 20.8335 32.58 20.8335 32.99C20.8335 33.4 20.4935 33.75 20.0835 33.75Z" fill="#78378B"/>
<path d="M20.0835 23.76C19.6735 23.76 19.3335 23.42 19.3335 23.01C19.3335 22.6 19.6735 22.26 20.0835 22.26C20.4935 22.26 20.8335 22.59 20.8335 23V23.01C20.8335 23.42 20.4935 23.76 20.0835 23.76Z" fill="#78378B"/>
<path d="M38.8335 29C38.2835 29 37.8335 28.56 37.8335 28C37.8335 27.45 38.2835 27 38.8335 27C39.3835 27 39.8335 27.45 39.8335 28C39.8335 28.55 39.3835 29 38.8335 29Z" fill="#78378B"/>
<path d="M36.6333 33.75C36.2233 33.75 35.8833 33.42 35.8833 33V32.99C35.8833 32.58 36.2233 32.24 36.6333 32.24C37.0433 32.24 37.3833 32.58 37.3833 32.99C37.3833 33.4 37.0433 33.75 36.6333 33.75Z" fill="#78378B"/>
<path d="M36.6333 23.76C36.2233 23.76 35.8833 23.42 35.8833 23.01C35.8833 22.6 36.2233 22.26 36.6333 22.26C37.0433 22.26 37.3833 22.59 37.3833 23.01V23.02C37.3833 23.42 37.0433 23.76 36.6333 23.76Z" fill="#78378B"/>
</svg>
