<svg width="221" height="63" viewBox="0 0 221 63" fill="none" xmlns="http://www.w3.org/2000/svg">
<path d="M209.366 0.235352H11.634C6.11119 0.235352 1.63403 4.71251 1.63403 10.2354V52.2353C1.63403 57.7582 6.11119 62.2353 11.634 62.2353H209.366C214.889 62.2353 219.366 57.7582 219.366 52.2353V10.2354C219.366 4.7125 214.889 0.235352 209.366 0.235352Z" fill="white"/>
<path d="M116.285 20.1642C114.796 20.1642 113.541 19.6761 112.548 18.7154C111.564 17.7816 111.014 16.4943 111.039 15.18C111.039 13.7774 111.548 12.59 112.548 11.6485C113.537 10.6877 114.792 10.1997 116.281 10.1997C117.753 10.1997 119.009 10.6877 120.018 11.6485C121.018 12.6207 121.527 13.8081 121.527 15.18C121.51 16.5865 121.002 17.7739 120.018 18.7116C119.029 19.68 117.774 20.1642 116.285 20.1642ZM71.9836 20.1642C70.5275 20.1642 69.2642 19.6838 68.2306 18.7347C67.2052 17.7893 66.6843 16.5942 66.6843 15.1839C66.6843 13.7735 67.2052 12.5784 68.2306 11.6331C69.2437 10.6839 70.507 10.2036 71.9836 10.2036C72.7055 10.2036 73.4069 10.338 74.0795 10.6109C74.7399 10.876 75.2772 11.2373 75.675 11.6792L75.7735 11.7906L74.662 12.8128L74.5471 12.686C73.9196 11.9866 73.0787 11.6446 71.9672 11.6446C70.9746 11.6446 70.1092 11.9751 69.3955 12.6284C68.6777 13.2855 68.3127 14.1463 68.3127 15.1877C68.3127 16.2291 68.6777 17.0899 69.3955 17.747C70.1092 18.4003 70.9746 18.7308 71.9672 18.7308C73.0254 18.7308 73.9155 18.4003 74.6086 17.747C75.0188 17.3628 75.2731 16.8248 75.3633 16.1446H71.799V14.7074H76.8932L76.9137 14.838C76.9506 15.0801 76.9876 15.3299 76.9876 15.5605C76.9876 16.8862 76.561 17.9584 75.7161 18.75C74.7563 19.6877 73.5012 20.1642 71.9836 20.1642ZM130.887 19.9605H129.316L124.505 12.7475L124.546 14.0464V19.9567H122.975V10.4072H124.767L124.816 10.4802L129.34 17.2744L129.299 15.9793V10.4072H130.887V19.9605ZM104.481 19.9605H102.889V11.8444H100.129V10.4072H107.237V11.8444H104.477V19.9605H104.481ZM98.8327 19.9605H97.2454V10.4072H98.8327V19.9605ZM89.9117 19.9605H88.3244V11.8444H85.564V10.4072H92.6721V11.8444H89.9117V19.9605ZM84.5591 19.9451H78.4723V10.4072H84.5591V11.8444H80.0638V14.4653H84.1202V15.8871H80.0638V18.5079H84.5591V19.9451ZM113.713 17.7278C114.423 18.3926 115.284 18.727 116.285 18.727C117.315 18.727 118.155 18.4003 118.857 17.7278C119.554 17.0745 119.907 16.2176 119.907 15.1839C119.907 14.1501 119.554 13.2893 118.861 12.6399C118.151 11.9751 117.286 11.6408 116.289 11.6408C115.26 11.6408 114.419 11.9674 113.722 12.6399C113.024 13.2932 112.672 14.1501 112.672 15.1839C112.672 16.2176 113.02 17.0784 113.713 17.7278Z" fill="#5C271C"/>
<path fill-rule="evenodd" clip-rule="evenodd" d="M110.892 33.2991C107.016 33.2991 103.874 36.0544 103.874 39.855C103.874 43.621 107.036 46.4109 110.892 46.4109C114.768 46.4109 117.91 43.6363 117.91 39.855C117.91 36.0544 114.768 33.2991 110.892 33.2991ZM110.892 43.8131C108.771 43.8131 106.946 42.1684 106.946 39.8396C106.946 37.4763 108.775 35.8661 110.892 35.8661C113.012 35.8661 114.837 37.4763 114.837 39.8396C114.842 42.1837 113.012 43.8131 110.892 43.8131ZM95.5804 33.2991C91.7043 33.2991 88.5625 36.0544 88.5625 39.855C88.5625 43.621 91.7248 46.4109 95.5804 46.4109C99.4564 46.4109 102.598 43.6363 102.598 39.855C102.598 36.0544 99.4523 33.2991 95.5804 33.2991ZM95.5804 43.8131C93.4598 43.8131 91.6346 42.1684 91.6346 39.8396C91.6346 37.4763 93.4639 35.8661 95.5804 35.8661C97.7009 35.8661 99.5261 37.4763 99.5261 39.8396C99.5261 42.1837 97.7009 43.8131 95.5804 43.8131ZM77.361 35.3012V38.0757H84.4691C84.2517 39.6321 83.7021 40.7811 82.8613 41.5689C81.8195 42.545 80.2116 43.6056 77.3774 43.6056C73.0092 43.6056 69.5926 40.3007 69.5926 36.2081C69.5926 32.1155 73.0092 28.8107 77.3774 28.8107C79.7358 28.8107 81.4544 29.683 82.73 30.7974L84.83 28.8299C83.0581 27.2389 80.6997 26.0208 77.3938 26.0208C71.4014 26.0208 66.3728 30.5937 66.3728 36.1927C66.3728 41.8071 71.3973 46.3647 77.3938 46.3647C80.63 46.3647 83.0581 45.3733 84.9777 43.5057C86.9342 41.6726 87.5535 39.0864 87.5535 36.9997C87.5535 36.3503 87.5002 35.7662 87.3894 35.2705H77.3569C77.361 35.2666 77.361 35.3012 77.361 35.3012ZM151.883 37.4609C151.297 35.9891 149.525 33.2837 145.891 33.2837C142.289 33.2837 139.295 35.9391 139.295 39.8396C139.295 43.521 142.257 46.3955 146.239 46.3955C149.439 46.3955 151.301 44.5625 152.068 43.4865L149.693 41.9954C148.905 43.0906 147.81 43.8093 146.256 43.8093C144.685 43.8093 143.586 43.1406 142.855 41.8225L152.211 38.191C152.211 38.1949 151.883 37.4609 151.883 37.4609ZM142.343 39.6513C142.269 37.1189 144.443 35.8315 145.997 35.8315C147.224 35.8315 148.245 36.3964 148.594 37.2188L142.343 39.6513ZM134.743 46.0035H137.815V26.7432H134.743V46.0035ZM129.698 34.7555H129.587C128.894 33.9831 127.577 33.2837 125.895 33.2837C122.405 33.2837 119.189 36.162 119.189 39.8588C119.189 43.5403 122.388 46.384 125.895 46.384C127.556 46.384 128.894 45.6807 129.587 44.8929H129.698V45.8344C129.698 48.3361 128.27 49.685 125.969 49.685C124.087 49.685 122.918 48.4168 122.442 47.3562L119.772 48.4014C120.539 50.1307 122.585 52.2712 125.965 52.2712C129.566 52.2712 132.618 50.2844 132.618 45.4386V33.6757H129.714V34.7555C129.718 34.7555 129.698 34.7555 129.698 34.7555ZM126.17 43.8131C124.05 43.8131 122.278 42.153 122.278 39.8588C122.278 37.5454 124.05 35.8699 126.17 35.8699C128.27 35.8699 129.899 37.5646 129.899 39.8588C129.919 42.153 128.274 43.8131 126.17 43.8131ZM166.267 26.7432H158.921V46.0035H161.994V38.7098H166.272C169.672 38.7098 173.015 36.4003 173.015 32.7342C173.015 29.0681 169.684 26.7432 166.267 26.7432ZM166.358 36.0198H161.989V29.4101H166.358C168.659 29.4101 169.959 31.1894 169.959 32.715C169.959 34.2252 168.642 36.0198 166.358 36.0198ZM185.328 33.2645C183.096 33.2645 180.795 34.1906 179.844 36.2081L182.567 37.2687C183.154 36.2081 184.228 35.8469 185.365 35.8469C186.956 35.8469 188.564 36.7384 188.601 38.3294V38.533C188.051 38.241 186.845 37.7952 185.401 37.7952C182.461 37.7952 179.479 39.3016 179.479 42.1261C179.479 44.7123 181.89 46.3724 184.577 46.3724C186.64 46.3724 187.776 45.5001 188.486 44.4894H188.597V45.9805H191.558V38.6022C191.558 35.1667 188.834 33.2645 185.328 33.2645ZM184.942 43.8131C183.937 43.8131 182.53 43.352 182.53 42.1684C182.53 40.6773 184.286 40.1124 185.783 40.1124C187.136 40.1124 187.776 40.3853 188.58 40.7619C188.359 42.4912 186.8 43.7977 184.942 43.8131ZM202.362 33.6757L198.834 42.03H198.723L195.069 33.6757H191.763L197.247 45.3541L194.121 51.8446H197.321L205.758 33.6757H202.362ZM174.709 46.0035H177.781V26.7432H174.709V46.0035Z" fill="#5C271C"/>
<path fill-rule="evenodd" clip-rule="evenodd" d="M15.9928 11.3833C15.517 11.8637 15.2422 12.5976 15.2422 13.5583V47.6328C15.2422 48.5935 15.517 49.3275 16.0092 49.7886L16.1363 49.8924L36.5131 30.8012V30.3746L16.1199 11.2795L15.9928 11.3833Z" fill="url(#paint0_linear_87_18736)"/>
<path fill-rule="evenodd" clip-rule="evenodd" d="M43.2932 37.1841L36.4968 30.8165V30.3708L43.2932 24.0032L43.4408 24.0877L51.48 28.3686C53.781 29.583 53.781 31.5889 51.48 32.8186L43.4408 37.0996L43.2932 37.1841Z" fill="url(#paint1_linear_87_18736)"/>
<path fill-rule="evenodd" clip-rule="evenodd" d="M43.4404 37.0997L36.4964 30.5938L15.9924 49.8041C16.743 50.5573 18.0022 50.6418 19.4091 49.9079L43.4404 37.0997Z" fill="url(#paint2_linear_87_18736)"/>
<path fill-rule="evenodd" clip-rule="evenodd" d="M43.4404 24.0876L19.4091 11.2986C18.0022 10.5455 16.7389 10.6492 15.9924 11.4024L36.4964 30.5935L43.4404 24.0876Z" fill="url(#paint3_linear_87_18736)"/>
<path opacity="0.2" fill-rule="evenodd" clip-rule="evenodd" d="M43.2929 36.9612L19.4257 49.6656C18.0927 50.3842 16.9032 50.3343 16.1362 49.681L16.009 49.8001L16.1362 49.9039C16.9032 50.5533 18.0927 50.6071 19.4257 49.8885L43.457 37.0995L43.2929 36.9612Z" fill="#5C271C"/>
<path opacity="0.12" fill-rule="evenodd" clip-rule="evenodd" d="M51.4805 32.5959L43.2732 36.9613L43.4209 37.0997L51.46 32.8188C52.6126 32.2039 53.1786 31.3969 53.1786 30.5938C53.1089 31.3316 52.5223 32.031 51.4805 32.5959Z" fill="#5C271C"/>
<path opacity="0.25" fill-rule="evenodd" clip-rule="evenodd" d="M19.4094 11.5217L51.4799 28.5916C52.5217 29.1411 53.1082 29.8597 53.1985 30.5937C53.1985 29.7905 52.6324 28.9835 51.4799 28.3687L19.4094 11.2988C17.1084 10.0652 15.2422 11.0951 15.2422 13.5584V13.7812C15.2422 11.3141 17.1084 10.3035 19.4094 11.5217Z" fill="#5C271C"/>
<defs>
<linearGradient id="paint0_linear_87_18736" x1="34.6854" y1="13.1907" x2="2.34372" y2="22.3885" gradientUnits="userSpaceOnUse">
<stop stop-color="#00A0FF"/>
<stop offset="0.00657" stop-color="#00A1FF"/>
<stop offset="0.2601" stop-color="#00BEFF"/>
<stop offset="0.5122" stop-color="#00D2FF"/>
<stop offset="0.7604" stop-color="#00DFFF"/>
<stop offset="1" stop-color="#00E3FF"/>
</linearGradient>
<linearGradient id="paint1_linear_87_18736" x1="54.4807" y1="30.5937" x2="14.683" y2="30.5937" gradientUnits="userSpaceOnUse">
<stop stop-color="#FFE000"/>
<stop offset="0.4087" stop-color="#FFBD00"/>
<stop offset="0.7754" stop-color="#FFA500"/>
<stop offset="1" stop-color="#FF9C00"/>
</linearGradient>
<linearGradient id="paint2_linear_87_18736" x1="39.6645" y1="34.1339" x2="15.9057" y2="76.8146" gradientUnits="userSpaceOnUse">
<stop stop-color="#FF3A44"/>
<stop offset="1" stop-color="#C31162"/>
</linearGradient>
<linearGradient id="paint3_linear_87_18736" x1="10.8293" y1="0.0494908" x2="21.4285" y2="19.1104" gradientUnits="userSpaceOnUse">
<stop stop-color="#32A071"/>
<stop offset="0.0685" stop-color="#2DA771"/>
<stop offset="0.4762" stop-color="#15CF74"/>
<stop offset="0.8009" stop-color="#06E775"/>
<stop offset="1" stop-color="#00F076"/>
</linearGradient>
</defs>
</svg>
