<svg width="374" height="185" viewBox="0 0 374 185" fill="none" xmlns="http://www.w3.org/2000/svg">
<path d="M180.85 100.469L157.674 123.835C155.358 126.17 151.602 126.17 149.283 123.835C148.125 122.667 147.546 121.136 147.546 119.605C147.546 118.076 148.125 116.545 149.283 115.375L172.46 92.0092" stroke="#2D2A26" stroke-width="4" stroke-miterlimit="10" stroke-linecap="round" stroke-linejoin="round"/>
<path d="M180.85 100.469L157.674 123.835C156.516 125.002 155.937 126.534 155.937 128.062C155.937 129.594 156.516 131.125 157.674 132.292C159.99 134.63 163.746 134.63 166.062 132.292L170.195 128.126" stroke="#2D2A26" stroke-width="4" stroke-miterlimit="10" stroke-linecap="round" stroke-linejoin="round"/>
<path d="M172.46 92.0092L149.283 115.375C146.967 117.712 143.211 117.712 140.895 115.375C139.737 114.207 139.158 112.676 139.158 111.147C139.158 109.616 139.737 108.085 140.895 106.917L174.348 73.1871L174.348 73.1828L186.572 85.5081C189.353 88.3113 193.86 88.3113 196.64 85.5081C199.42 82.705 199.42 78.1605 196.64 75.3574L186.505 65.1384M186.505 65.1384L186.5 65.1432M186.505 65.1384L189.995 61.619C202.498 49.0127 222.761 49.0127 235.264 61.619C240.477 66.8755 243.515 73.4861 244.376 80.3239C245.591 89.8939 242.554 99.9118 235.264 107.262L217.052 124.707" stroke="#2D2A26" stroke-width="4" stroke-miterlimit="10" stroke-linecap="round" stroke-linejoin="round"/>
<path d="M191.883 150.084C189.566 152.42 185.81 152.42 183.493 150.084L170.155 136.635C167.838 134.299 167.838 130.512 170.155 128.176C172.472 125.84 176.228 125.84 178.544 128.176L191.883 141.625C194.2 143.961 194.2 147.748 191.883 150.084Z" stroke="#2D2A26" stroke-width="4" stroke-miterlimit="10" stroke-linecap="round" stroke-linejoin="round"/>
<path d="M200.273 141.625C197.956 143.961 194.2 143.961 191.883 141.625L178.544 128.176C176.228 125.84 176.228 122.053 178.544 119.717C180.861 117.381 184.617 117.381 186.934 119.717L200.273 133.166C202.589 135.502 202.589 139.289 200.273 141.625Z" stroke="#2D2A26" stroke-width="4" stroke-miterlimit="10" stroke-linecap="round" stroke-linejoin="round"/>
<path d="M208.662 133.166C206.346 135.502 202.589 135.502 200.273 133.166L186.934 119.717C184.617 117.381 184.617 113.594 186.934 111.258C189.251 108.922 193.007 108.922 195.324 111.258L208.662 124.707C210.979 127.043 210.979 130.83 208.662 133.166Z" stroke="#2D2A26" stroke-width="4" stroke-miterlimit="10" stroke-linecap="round" stroke-linejoin="round"/>
<path d="M217.052 124.707C214.735 127.043 210.979 127.043 208.662 124.707L195.324 111.258C193.007 108.923 193.007 105.135 195.324 102.8C197.64 100.464 201.397 100.464 203.713 102.8L217.052 116.248C219.369 118.584 219.369 122.371 217.052 124.707Z" stroke="#2D2A26" stroke-width="4" stroke-miterlimit="10" stroke-linecap="round" stroke-linejoin="round"/>
<path d="M140.895 106.917L174.348 73.1871L174.348 73.1828L186.573 85.5081C189.353 88.3113 193.86 88.3113 196.64 85.5081C199.42 82.705 199.42 78.1605 196.64 75.3574L184.416 63.032L186.505 65.1384L186.5 65.1432L183.005 61.619C170.504 49.0127 150.239 49.0127 137.736 61.619C132.525 66.8755 129.486 73.4885 128.624 80.3238C128.449 81.6878 128.363 83.0634 128.363 84.4392C128.363 92.7007 131.486 100.96 137.736 107.262L139.563 108.975L140.895 106.917Z" stroke="#2D2A26" stroke-width="4" stroke-miterlimit="10" stroke-linecap="round" stroke-linejoin="round"/>
</svg>
