<svg width="40" height="41" viewBox="0 0 40 41" fill="none" xmlns="http://www.w3.org/2000/svg">
<rect x="0.5" y="1" width="39" height="39" rx="9.5" fill="white"/>
<rect x="0.5" y="1" width="39" height="39" rx="9.5" stroke="#EAEAE9"/>
<path d="M29.1654 20.5002C29.1654 15.4402 25.0587 11.3335 19.9987 11.3335C14.9387 11.3335 10.832 15.4402 10.832 20.5002C10.832 24.9368 13.9854 28.631 18.1654 29.4835V23.2502H16.332V20.5002H18.1654V18.2085C18.1654 16.4393 19.6045 15.0002 21.3737 15.0002H23.6654V17.7502H21.832C21.3279 17.7502 20.9154 18.1627 20.9154 18.6668V20.5002H23.6654V23.2502H20.9154V29.621C25.5445 29.1627 29.1654 25.2577 29.1654 20.5002Z" fill="#1C252D"/>
</svg>
