<svg width="120" height="245" viewBox="0 0 120 245" fill="none" xmlns="http://www.w3.org/2000/svg">
<path d="M25.1839 107.134L21.2966 104.89C17.1433 113.563 16.1431 122.041 15.1744 130.264C14.0841 139.525 13.0569 148.275 7.81415 157.356C2.57142 166.436 -4.493 171.701 -11.9681 177.276C-19.4727 182.877 -27.2464 188.668 -32.9442 198.537C-35.4503 202.877 -37.2907 207.545 -38.5593 212.801L-34.2053 213.861C-33.0338 209.023 -31.3556 204.737 -29.0678 200.775C-23.825 191.694 -16.7606 186.429 -9.28554 180.855C-1.78091 175.254 5.98656 169.473 11.6906 159.594C17.3946 149.714 18.5168 140.097 19.6149 130.797C20.5647 122.708 21.4702 114.996 25.1839 107.134Z" fill="#2D2A26"/>
<path d="M2.40279 84.0766L1.47232 84.1585L0.242095 84.2832L-2.28517 84.5229C-2.28517 84.5229 -27.0396 58.9152 -20.1453 50.2841C-11.8358 39.8787 -1.23048 72.1892 2.40279 84.0766Z" fill="white"/>
<path d="M1.46624 84.1692L0.236016 84.2939L-13.3104 60.2623C-13.4682 59.984 -13.365 59.6549 -13.0976 59.4926C-12.8255 59.3473 -12.4887 59.441 -12.3246 59.7085L1.46624 84.1692Z" fill="#EE8F7A"/>
<path d="M11.6169 84.8179L8.86915 84.3113L7.71412 84.1051L6.19892 83.8206C6.19892 83.8206 -10.287 39.6785 2.68982 32.8748C18.3453 24.6663 13.5307 68.4885 11.6169 84.8179Z" fill="white"/>
<path d="M8.8693 84.3118L7.71427 84.1056L4.48021 47.6289C4.45287 47.3252 4.68793 47.0434 4.99238 47.0176C5.30768 46.9981 5.58055 47.2276 5.60789 47.5313L8.8693 84.3118Z" fill="#EE8F7A"/>
<path d="M21.0805 89.6921L15.4667 86.451C15.4667 86.451 13.9551 29.9641 28.9175 26.567C43.6686 23.2351 38.6654 52.0623 21.0805 89.6921Z" fill="white"/>
<path d="M18.4199 88.1556L17.3993 87.5664L28.087 43.9533C28.1606 43.6503 28.4684 43.4681 28.7727 43.543C29.0769 43.6179 29.2611 43.9258 29.1875 44.2288L18.4199 88.1556Z" fill="#EE8F7A"/>
<path d="M50.2016 111.673L50.5959 112.52L51.103 113.648L52.159 115.956C52.159 115.956 86.7132 124.59 90.7408 114.304C95.5973 101.905 62.313 108.876 50.2016 111.673Z" fill="white"/>
<path d="M50.5895 112.53L51.0966 113.658L78.6818 113.374C78.9909 113.365 79.2352 113.118 79.242 112.805C79.2318 112.497 78.9822 112.252 78.6685 112.243L50.5895 112.53Z" fill="#EE8F7A"/>
<path d="M44.9526 104.064L46.7653 106.191L47.5213 107.088L48.5254 108.258C48.5254 108.258 94.9964 100.464 94.4002 85.8239C93.6812 68.1616 58.1374 94.2423 44.9526 104.064Z" fill="white"/>
<path d="M46.765 106.191L47.521 107.088L80.7278 91.6504C81.0045 91.5222 81.1309 91.1777 81.001 90.9012C80.8603 90.6184 80.5251 90.4968 80.2484 90.625L46.765 106.191Z" fill="#EE8F7A"/>
<path d="M35.9998 98.3057L41.6136 101.547C41.6136 101.547 91.2884 74.6124 86.7383 59.9498C82.2592 45.5154 59.7957 64.2618 35.9998 98.3057Z" fill="white"/>
<path d="M38.6494 99.8351L39.6701 100.424L72.0963 69.3621C72.3219 69.1468 72.3257 68.7891 72.1087 68.5631C71.8918 68.3371 71.533 68.3315 71.3074 68.5468L38.6494 99.8351Z" fill="#EE8F7A"/>
<path d="M31.7649 95.8605L26.4878 92.8138C26.4878 92.8138 43.8924 28.3885 59.7318 31.3716C78.752 34.9387 59.0884 64.5587 31.7649 95.8605Z" fill="white"/>
<path d="M29.0506 94.2932L28.0733 93.729L53.8058 48.2062C53.9616 47.9362 54.3035 47.8457 54.5812 47.9916C54.8526 48.1483 54.9451 48.4897 54.7893 48.7596L29.0506 94.2932Z" fill="#EE8F7A"/>
<path d="M55.3293 117.787L35.3643 116.784L30.9277 116.569C30.9277 116.569 30.9277 116.569 30.9169 116.563L26.5534 116.347C24.8638 116.264 23.223 115.922 21.6571 115.349C21.0969 115.141 20.5492 114.911 20.0093 114.642C19.9767 114.623 19.9441 114.605 19.9053 114.596C19.7253 114.507 19.5454 114.417 19.3717 114.317C19.3391 114.298 19.2957 114.273 19.2522 114.248C18.8117 114.008 18.3727 113.74 17.957 113.457C16.7101 112.608 15.5801 111.581 14.587 110.417C14.1408 109.886 13.7195 109.312 13.3324 108.729L10.7935 104.801L-2.3024 84.5277C0.776484 81.8279 3.30481 84.0939 3.30481 84.0939C3.30481 84.0939 5.8563 80.3266 9.84557 82.0683C13.8348 83.8101 13.0218 86.5223 13.0218 86.5223C13.0218 86.5223 16.1554 82.8752 19.8891 85.0596C23.6227 87.244 24.3966 91.6211 24.3966 91.6211C28.5414 87.8524 32.4816 90.8327 32.4816 90.8327C32.4816 90.8327 37.0219 92.7486 35.8414 98.2288C35.8414 98.2288 40.0189 96.7104 43.7667 98.8454C47.5253 100.987 45.9336 105.524 45.9336 105.524C45.9336 105.524 47.8759 103.464 51.3789 106.048C54.8819 108.632 52.8951 112.725 52.8951 112.725C52.8951 112.725 56.1388 113.777 55.3293 117.787Z" fill="#EE8F7A"/>
<path d="M14.6044 110.412C14.1582 109.881 13.7369 109.307 13.3499 108.723L10.8109 104.796C10.1355 103.182 9.58116 101.61 9.12132 100.149C7.02118 93.4803 6.50312 87.7824 6.49548 87.7204C6.46955 87.4895 6.65015 87.2771 6.87537 87.2631C7.10681 87.2384 7.32073 87.4195 7.33581 87.6441C7.3541 87.8131 8.55828 100.573 14.6044 110.412Z" fill="#F1E4C1"/>
<path d="M19.3827 114.323C19.3501 114.304 19.3067 114.279 19.2633 114.254C18.8227 114.014 18.3837 113.746 17.9681 113.463C14.011 105.045 16.5245 92.4165 16.6421 91.8366C16.6892 91.6046 16.9162 91.4621 17.1382 91.5039C17.371 91.552 17.515 91.7791 17.4742 92.0003C17.449 92.1441 14.6643 106.07 19.3007 114.189C19.3316 114.236 19.3517 114.276 19.3827 114.323Z" fill="#F1E4C1"/>
<path d="M49.3428 112.458C49.2853 112.483 44.098 114.872 37.2663 116.399C36.6526 116.534 36.028 116.663 35.3584 116.794L30.9281 116.569C40.4889 115.581 48.8503 111.757 48.9716 111.697C49.1845 111.604 49.4375 111.692 49.5318 111.905C49.6432 112.114 49.5557 112.365 49.3428 112.458Z" fill="#F1E4C1"/>
<path d="M40.7107 105.719C40.2673 106.11 30.8237 114.393 21.6683 115.355C21.1081 115.147 20.5603 114.917 20.0204 114.648C19.9879 114.629 19.9553 114.61 19.9164 114.602C19.9615 114.6 20.0066 114.597 20.0454 114.605C29.3729 114.548 40.0284 105.195 40.1404 105.101C40.3177 104.945 40.5802 104.967 40.7382 105.144C40.8916 105.305 40.8818 105.573 40.7107 105.719Z" fill="#F1E4C1"/>
<path d="M29.122 98.8835L20.0205 114.648C19.9879 114.629 19.949 114.621 19.9056 114.596C19.7256 114.506 19.5457 114.417 19.372 114.317C19.3394 114.298 19.296 114.273 19.2525 114.248L28.3728 98.451C28.4912 98.2458 28.7476 98.1779 28.9539 98.297C29.171 98.4224 29.2404 98.6784 29.122 98.8835Z" fill="#F1E4C1"/>
<path d="M15.4456 144.514C15.4456 144.514 21.6462 147.115 34.184 146.162C46.7219 145.209 53.3522 133.474 53.3522 133.474C53.3522 133.474 44.6351 136.561 34.2599 136.301C25.4424 136.076 19.3389 140.73 16.7825 143.126C16.4028 143.483 16.1102 143.789 15.8892 144.022C15.5904 144.339 15.4456 144.514 15.4456 144.514Z" fill="#2D2A26"/>
<path d="M15.8889 144.022C27.6522 142.881 40.2604 140.126 40.3909 140.1C40.6069 140.052 40.7424 139.843 40.6932 139.627C40.6439 139.411 40.433 139.275 40.217 139.323C40.0803 139.36 28.2054 141.948 16.7821 143.127C16.4025 143.483 16.099 143.783 15.8889 144.022Z" fill="#F1E4C1"/>
<path d="M-27.7775 197.085C-27.7775 197.085 -21.577 199.686 -9.0391 198.733C3.50961 197.787 10.1291 186.046 10.1291 186.046C10.1291 186.046 1.40108 189.126 -8.96322 188.872C-17.7808 188.647 -23.8842 193.301 -26.4407 195.698C-26.8203 196.054 -27.1129 196.36 -27.3339 196.593C-27.6265 196.899 -27.7775 197.085 -27.7775 197.085Z" fill="#2D2A26"/>
<path d="M-5.81295 173.084C-5.81295 173.084 -11.1657 169.015 -16.6093 157.68C-22.053 146.345 -15.2055 134.736 -15.2055 134.736C-15.2055 134.736 -13.5203 143.829 -8.10732 152.684C-3.5039 160.208 -4.48222 167.82 -5.27961 171.232C-5.39867 171.739 -5.51751 172.146 -5.60821 172.453C-5.73329 172.871 -5.81295 173.084 -5.81295 173.084Z" fill="#2D2A26"/>
<path d="M-5.60819 172.454C-10.5017 161.696 -14.4199 149.4 -14.4631 149.274C-14.5294 149.063 -14.4156 148.84 -14.2043 148.775C-13.993 148.71 -13.7696 148.825 -13.7032 149.036C-13.6662 149.172 -9.97021 160.75 -5.2796 171.233C-5.39866 171.74 -5.51749 172.146 -5.60819 172.454Z" fill="#F1E4C1"/>
</svg>
