<svg width="124" height="245" viewBox="0 0 124 245" fill="none" xmlns="http://www.w3.org/2000/svg">
<path d="M94.9726 107.134L98.8599 104.89C103.013 113.563 104.013 122.041 104.982 130.264C106.072 139.525 107.1 148.275 112.342 157.356C117.585 166.436 124.649 171.701 132.125 177.276C139.629 182.877 147.403 188.668 153.101 198.537C155.607 202.877 157.447 207.545 158.716 212.801L154.362 213.861C153.19 209.023 151.512 204.737 149.224 200.775C143.982 191.694 136.917 186.429 129.442 180.855C121.937 175.254 114.17 169.473 108.466 159.594C102.762 149.714 101.64 140.097 100.542 130.797C99.5918 122.708 98.6863 114.996 94.9726 107.134Z" fill="#2D2A26"/>
<path d="M117.754 84.0766L118.684 84.1585L119.914 84.2832L122.442 84.5229C122.442 84.5229 147.196 58.9152 140.302 50.2841C131.992 39.8787 121.387 72.1892 117.754 84.0766Z" fill="white"/>
<path d="M118.69 84.1692L119.921 84.2939L133.467 60.2623C133.625 59.984 133.522 59.6549 133.254 59.4926C132.982 59.3473 132.645 59.441 132.481 59.7085L118.69 84.1692Z" fill="#23A495"/>
<path d="M108.54 84.8179L111.287 84.3113L112.442 84.1051L113.958 83.8206C113.958 83.8206 130.443 39.6785 117.467 32.8748C101.811 24.6663 106.626 68.4885 108.54 84.8179Z" fill="white"/>
<path d="M111.287 84.3118L112.442 84.1056L115.676 47.6289C115.704 47.3252 115.469 47.0434 115.164 47.0176C114.849 46.9981 114.576 47.2276 114.549 47.5313L111.287 84.3118Z" fill="#23A495"/>
<path d="M99.076 89.6921L104.69 86.451C104.69 86.451 106.201 29.9641 91.239 26.567C76.4879 23.2351 81.4911 52.0623 99.076 89.6921Z" fill="white"/>
<path d="M101.736 88.1556L102.757 87.5664L92.0693 43.9533C91.9957 43.6503 91.6878 43.4681 91.3836 43.543C91.0793 43.6179 90.8951 43.9258 90.9687 44.2288L101.736 88.1556Z" fill="#23A495"/>
<path d="M69.9551 111.673L69.5609 112.52L69.0537 113.648L67.9977 115.956C67.9977 115.956 33.4436 124.59 29.416 114.304C24.5594 101.905 57.8437 108.876 69.9551 111.673Z" fill="white"/>
<path d="M69.5673 112.53L69.0601 113.658L41.4749 113.374C41.1659 113.365 40.9216 113.118 40.9147 112.805C40.925 112.497 41.1745 112.252 41.4882 112.243L69.5673 112.53Z" fill="#23A495"/>
<path d="M75.2039 104.064L73.3912 106.191L72.6352 107.088L71.6311 108.258C71.6311 108.258 25.1601 100.464 25.7563 85.8239C26.4753 68.1616 62.0191 94.2423 75.2039 104.064Z" fill="white"/>
<path d="M73.3918 106.191L72.6357 107.088L39.4289 91.6504C39.1522 91.5222 39.0258 91.1777 39.1557 90.9012C39.2964 90.6184 39.6317 90.4968 39.9083 90.625L73.3918 106.191Z" fill="#23A495"/>
<path d="M84.157 98.3057L78.5431 101.547C78.5431 101.547 28.8683 74.6124 33.4184 59.9498C37.8976 45.5154 60.3611 64.2618 84.157 98.3057Z" fill="white"/>
<path d="M81.5071 99.8351L80.4864 100.424L48.0602 69.3621C47.8346 69.1468 47.8308 68.7891 48.0477 68.5631C48.2647 68.3371 48.6234 68.3315 48.8491 68.5468L81.5071 99.8351Z" fill="#23A495"/>
<path d="M88.3913 95.8605L93.6685 92.8138C93.6685 92.8138 76.2638 28.3885 60.4245 31.3716C41.4042 34.9387 61.0679 64.5587 88.3913 95.8605Z" fill="white"/>
<path d="M91.1059 94.2932L92.0832 93.729L66.3507 48.2062C66.1949 47.9362 65.853 47.8457 65.5753 47.9916C65.3039 48.1483 65.2114 48.4897 65.3672 48.7596L91.1059 94.2932Z" fill="#23A495"/>
<path d="M64.8272 117.787L84.7922 116.784L89.2288 116.569C89.2288 116.569 89.2288 116.569 89.2396 116.563L93.6031 116.347C95.2927 116.264 96.9335 115.922 98.4994 115.349C99.0596 115.141 99.6073 114.911 100.147 114.642C100.18 114.623 100.212 114.605 100.251 114.596C100.431 114.507 100.611 114.417 100.785 114.317C100.817 114.298 100.861 114.273 100.904 114.248C101.345 114.008 101.784 113.74 102.199 113.457C103.446 112.608 104.576 111.581 105.57 110.417C106.016 109.886 106.437 109.312 106.824 108.729L109.363 104.801L122.459 84.5277C119.38 81.8279 116.852 84.0939 116.852 84.0939C116.852 84.0939 114.3 80.3266 110.311 82.0683C106.322 83.8101 107.135 86.5223 107.135 86.5223C107.135 86.5223 104.001 82.8752 100.267 85.0596C96.5338 87.244 95.7599 91.6211 95.7599 91.6211C91.6151 87.8524 87.6749 90.8327 87.6749 90.8327C87.6749 90.8327 83.1346 92.7486 84.3151 98.2288C84.3151 98.2288 80.1376 96.7104 76.3898 98.8454C72.6312 100.987 74.2229 105.524 74.2229 105.524C74.2229 105.524 72.2806 103.464 68.7776 106.048C65.2745 108.632 67.2614 112.725 67.2614 112.725C67.2614 112.725 64.0177 113.777 64.8272 117.787Z" fill="#23A495"/>
<path d="M105.552 110.412C105.998 109.881 106.42 109.307 106.807 108.723L109.346 104.796C110.021 103.182 110.575 101.61 111.035 100.149C113.135 93.4803 113.653 87.7824 113.661 87.7204C113.687 87.4895 113.506 87.2771 113.281 87.2631C113.05 87.2384 112.836 87.4195 112.821 87.6441C112.802 87.8131 111.598 100.573 105.552 110.412Z" fill="#F1E4C1"/>
<path d="M100.774 114.323C100.806 114.304 100.85 114.279 100.893 114.254C101.334 114.014 101.773 113.746 102.188 113.463C106.146 105.045 103.632 92.4165 103.514 91.8366C103.467 91.6046 103.24 91.4621 103.018 91.5039C102.785 91.552 102.641 91.7791 102.682 92.0003C102.707 92.1441 105.492 106.07 100.856 114.189C100.825 114.236 100.805 114.276 100.774 114.323Z" fill="#F1E4C1"/>
<path d="M70.8137 112.458C70.8712 112.483 76.0585 114.872 82.8902 116.399C83.5039 116.534 84.1285 116.663 84.7981 116.794L89.2284 116.569C79.6676 115.581 71.3062 111.757 71.1849 111.697C70.972 111.604 70.719 111.692 70.6247 111.905C70.5133 112.114 70.6008 112.365 70.8137 112.458Z" fill="#F1E4C1"/>
<path d="M79.4461 105.719C79.8895 106.11 89.333 114.393 98.4885 115.355C99.0487 115.147 99.5964 114.917 100.136 114.648C100.169 114.629 100.201 114.61 100.24 114.602C100.195 114.6 100.15 114.597 100.111 114.605C90.7839 114.548 80.1284 105.195 80.0164 105.101C79.839 104.945 79.5766 104.967 79.4185 105.144C79.2651 105.305 79.275 105.573 79.4461 105.719Z" fill="#F1E4C1"/>
<path d="M91.0345 98.8835L100.136 114.648C100.169 114.629 100.207 114.621 100.251 114.596C100.431 114.506 100.611 114.417 100.785 114.317C100.817 114.298 100.861 114.273 100.904 114.248L91.7837 98.451C91.6653 98.2458 91.4089 98.1779 91.2026 98.297C90.9855 98.4224 90.9161 98.6784 91.0345 98.8835Z" fill="#F1E4C1"/>
<path d="M104.711 144.514C104.711 144.514 98.5105 147.115 85.9727 146.162C73.4348 145.209 66.8046 133.474 66.8046 133.474C66.8046 133.474 75.5217 136.561 85.8968 136.301C94.7144 136.076 100.818 140.73 103.374 143.126C103.754 143.483 104.046 143.789 104.267 144.022C104.566 144.339 104.711 144.514 104.711 144.514Z" fill="#2D2A26"/>
<path d="M104.268 144.022C92.5043 142.881 79.8961 140.126 79.7656 140.1C79.5496 140.052 79.414 139.843 79.4633 139.627C79.5126 139.411 79.7235 139.275 79.9395 139.323C80.0762 139.36 91.9511 141.948 103.374 143.127C103.754 143.483 104.057 143.783 104.268 144.022Z" fill="#F1E4C1"/>
<path d="M147.934 197.085C147.934 197.085 141.733 199.686 129.195 198.733C116.647 197.787 110.027 186.046 110.027 186.046C110.027 186.046 118.755 189.126 129.119 188.872C137.937 188.647 144.04 193.301 146.597 195.698C146.977 196.054 147.269 196.36 147.49 196.593C147.783 196.899 147.934 197.085 147.934 197.085Z" fill="#2D2A26"/>
<path d="M147.491 196.593C135.727 195.452 123.119 192.697 122.989 192.672C122.773 192.623 122.637 192.414 122.686 192.198C122.736 191.983 122.947 191.846 123.163 191.895C123.299 191.931 135.174 194.519 146.598 195.698C146.977 196.055 147.27 196.361 147.491 196.593Z" fill="#F1E4C1"/>
<path d="M125.969 173.084C125.969 173.084 131.322 169.015 136.766 157.68C142.209 146.345 135.362 134.736 135.362 134.736C135.362 134.736 133.677 143.829 128.264 152.684C123.66 160.208 124.638 167.82 125.436 171.232C125.555 171.739 125.674 172.146 125.764 172.453C125.89 172.871 125.969 173.084 125.969 173.084Z" fill="#2D2A26"/>
<path d="M125.765 172.454C130.658 161.696 134.576 149.4 134.62 149.274C134.686 149.063 134.572 148.84 134.361 148.775C134.149 148.71 133.926 148.825 133.86 149.036C133.823 149.172 130.127 160.75 125.436 171.233C125.555 171.74 125.674 172.146 125.765 172.454Z" fill="#F1E4C1"/>
</svg>
