<svg width="57" height="56" viewBox="0 0 57 56" fill="none" xmlns="http://www.w3.org/2000/svg">
<rect x="0.833496" y="0.5" width="55" height="55" rx="15.5" fill="white"/>
<rect x="0.833496" y="0.5" width="55" height="55" rx="15.5" stroke="#EAEAE9"/>
<path d="M28.3336 34.19C24.9236 34.19 22.1436 31.41 22.1436 28C22.1436 24.59 24.9236 21.81 28.3336 21.81C29.6836 21.81 30.9736 22.24 32.0536 23.05C32.3836 23.3 32.4536 23.77 32.2036 24.1C31.9536 24.43 31.4836 24.5 31.1536 24.25C30.3336 23.63 29.3636 23.31 28.3336 23.31C25.7536 23.31 23.6436 25.41 23.6436 28C23.6436 30.59 25.7436 32.69 28.3336 32.69C29.8136 32.69 31.1736 32.01 32.0736 30.83C32.3236 30.5 32.7936 30.44 33.1236 30.69C33.4536 30.94 33.5135 31.41 33.2635 31.74C32.0835 33.29 30.2836 34.19 28.3336 34.19Z" fill="#78378B"/>
<path d="M33.7535 28.09C32.6935 28.09 31.8335 27.23 31.8335 26.17C31.8335 25.11 32.6935 24.25 33.7535 24.25C34.8135 24.25 35.6735 25.11 35.6735 26.17C35.6735 27.23 34.8135 28.09 33.7535 28.09ZM33.7535 25.75C33.5235 25.75 33.3335 25.94 33.3335 26.17C33.3335 26.4 33.5235 26.59 33.7535 26.59C33.9835 26.59 34.1735 26.4 34.1735 26.17C34.1735 25.94 33.9835 25.75 33.7535 25.75Z" fill="#78378B"/>
<path d="M28.3335 38.75C22.4035 38.75 17.5835 33.93 17.5835 28C17.5835 22.07 22.4035 17.25 28.3335 17.25C34.2635 17.25 39.0835 22.07 39.0835 28C39.0835 33.93 34.2635 38.75 28.3335 38.75ZM28.3335 18.75C23.2335 18.75 19.0835 22.9 19.0835 28C19.0835 33.1 23.2335 37.25 28.3335 37.25C33.4335 37.25 37.5835 33.1 37.5835 28C37.5835 22.9 33.4335 18.75 28.3335 18.75Z" fill="#78378B"/>
</svg>
