<svg width="56" height="56" viewBox="0 0 56 56" fill="none" xmlns="http://www.w3.org/2000/svg">
<rect x="0.5" y="0.5" width="55" height="55" rx="15.5" fill="white"/>
<rect x="0.5" y="0.5" width="55" height="55" rx="15.5" stroke="#F2EBF3"/>
<path d="M24.842 26.6197L24.8923 26.6215L24.9361 26.6142C24.9377 26.614 24.9404 26.6138 24.9442 26.6136C24.9557 26.613 24.9722 26.6125 24.9934 26.6125C25.0359 26.6125 25.0881 26.6144 25.1413 26.6185L25.1719 26.6209L25.2026 26.6195C27.4311 26.5171 29.1783 24.6862 29.1896 22.4425V22.44C29.1896 20.1339 27.3058 18.25 24.9996 18.25C22.6935 18.25 20.8096 20.1339 20.8096 22.44C20.8096 24.7096 22.5832 26.5402 24.842 26.6197ZM25.1596 27.12H25.1594H25.1593H25.1591H25.1589H25.1587H25.1586H25.1584H25.1582H25.158H25.1579H25.1577H25.1575H25.1574H25.1572H25.157H25.1568H25.1567H25.1565H25.1563H25.1561H25.156H25.1558H25.1556H25.1555H25.1553H25.1551H25.155H25.1548H25.1546H25.1544H25.1543H25.1541H25.1539H25.1538H25.1536H25.1534H25.1533H25.1531H25.1529H25.1528H25.1526H25.1524H25.1523H25.1521H25.1519H25.1518H25.1516H25.1514H25.1513H25.1511H25.1509H25.1508H25.1506H25.1504H25.1503H25.1501H25.1499H25.1498H25.1496H25.1494H25.1493H25.1491H25.149H25.1488H25.1486H25.1485H25.1483H25.1481H25.148H25.1478H25.1477H25.1475H25.1473H25.1472H25.147H25.1469H25.1467H25.1465H25.1464H25.1462H25.146H25.1459H25.1457H25.1456H25.1454H25.1453H25.1451H25.1449H25.1448H25.1446H25.1445H25.1443H25.1441H25.144H25.1438H25.1437H25.1435H25.1433H25.1432H25.143H25.1429H25.1427H25.1426H25.1424H25.1422H25.1421H25.1419H25.1418H25.1416H25.1415H25.1413H25.1412H25.141H25.1408H25.1407H25.1405H25.1404H25.1402H25.1401H25.1399H25.1398H25.1396H25.1394H25.1393H25.1391H25.139H25.1388H25.1387H25.1385H25.1384H25.1382H25.1381H25.1379H25.1378H25.1376H25.1375H25.1373H25.1371H25.137H25.1368H25.1367H25.1365H25.1364H25.1362H25.1361H25.1359H25.1358H25.1356H25.1355H25.1353H25.1352H25.135H25.1349H25.1347H25.1346H25.1344H25.1343H25.1341H25.134H25.1338H25.1337H25.1335H25.1334H25.1332H25.1331H25.1329H25.1328H25.1326H25.1325H25.1323H25.1322H25.132H25.1319H25.1317H25.1316H25.1314H25.1313H25.1311H25.131H25.1308H25.1307H25.1305H25.1304H25.1302H25.1301H25.1299H25.1298H25.1296H25.1295H25.1293H25.1292H25.129H25.1289H25.1287H25.1286H25.1284H25.1283H25.1281H25.128H25.1278H25.1277H25.1275H25.1274H25.1273H25.1271H25.127H25.1268H25.1267H25.1265H25.1264H25.1262H25.1261H25.1259H25.1258H25.1256H25.1255H25.1253H25.1252H25.125H25.1249H25.1247H25.1246H25.1245H25.1243H25.1242H25.124H25.1239H25.1237H25.1236H25.1234H25.1233H25.1231H25.123H25.1228H25.1227H25.1225H25.1224H25.1223H25.1221H25.122H25.1218H25.1217H25.1215H25.1214H25.1212H25.1211H25.1209H25.1208H25.1206H25.1205H25.1203H25.1202H25.1201H25.1199H25.1198H25.1196H25.1195H25.1193H25.1192H25.119H25.1189H25.1187H25.1186H25.1184H25.1183H25.1182H25.118H25.1179H25.1177H25.1176H25.1175C25.0362 27.1098 24.952 27.1106 24.8755 27.1189C22.2623 27.0178 20.3096 24.9641 20.3096 22.44C20.3096 19.8561 22.4158 17.75 24.9996 17.75C27.5832 17.75 29.6891 19.8556 29.6896 22.439C29.6802 24.98 27.6952 27.0348 25.1814 27.12H25.1814H25.1813H25.1812H25.1812H25.1811H25.1811H25.181H25.1809H25.1809H25.1808H25.1808H25.1807H25.1807H25.1806H25.1805H25.1805H25.1804H25.1804H25.1803H25.1802H25.1802H25.1801H25.1801H25.18H25.1799H25.1799H25.1798H25.1798H25.1797H25.1797H25.1796H25.1795H25.1795H25.1794H25.1794H25.1793H25.1792H25.1792H25.1791H25.1791H25.179H25.179H25.1789H25.1788H25.1788H25.1787H25.1787H25.1786H25.1785H25.1785H25.1784H25.1784H25.1783H25.1782H25.1782H25.1781H25.1781H25.178H25.178H25.1779H25.1778H25.1778H25.1777H25.1777H25.1776H25.1775H25.1775H25.1774H25.1774H25.1773H25.1773H25.1772H25.1771H25.1771H25.177H25.177H25.1769H25.1768H25.1768H25.1767H25.1767H25.1766H25.1765H25.1765H25.1764H25.1764H25.1763H25.1763H25.1762H25.1761H25.1761H25.176H25.176H25.1759H25.1758H25.1758H25.1757H25.1757H25.1756H25.1756H25.1755H25.1754H25.1754H25.1753H25.1753H25.1752H25.1751H25.1751H25.175H25.175H25.1749H25.1749H25.1748H25.1747H25.1747H25.1746H25.1746H25.1745H25.1744H25.1744H25.1743H25.1743H25.1742H25.1741H25.1741H25.174H25.174H25.1739H25.1739H25.1738H25.1737H25.1737H25.1736H25.1736H25.1735H25.1734H25.1734H25.1733H25.1733H25.1732H25.1732H25.1731H25.173H25.173H25.1729H25.1729H25.1728H25.1727H25.1727H25.1726H25.1726H25.1725H25.1724H25.1724H25.1723H25.1723H25.1722H25.1722H25.1721H25.172H25.172H25.1719H25.1719H25.1718H25.1717H25.1717H25.1716H25.1716H25.1715H25.1715H25.1714H25.1713H25.1713H25.1712H25.1712H25.1711H25.171H25.171H25.1709H25.1709H25.1708H25.1707H25.1707H25.1706H25.1706H25.1705H25.1705H25.1704H25.1703H25.1703H25.1702H25.1702H25.1701H25.17H25.17H25.1699H25.1699H25.1698H25.1698H25.1697H25.1696H25.1696H25.1695H25.1695H25.1694H25.1693H25.1693H25.1692H25.1692H25.1691H25.169H25.169H25.1689H25.1689H25.1688H25.1688H25.1687H25.1686H25.1686H25.1685H25.1685H25.1684H25.1683H25.1683H25.1682H25.1682H25.1681H25.1681H25.168H25.1679H25.1679H25.1678H25.1678H25.1677H25.1676H25.1676H25.1675H25.1675H25.1674H25.1674H25.1673H25.1672H25.1672H25.1671H25.1671H25.167H25.1669H25.1669H25.1668H25.1668H25.1667H25.1666H25.1666H25.1665H25.1665H25.1664H25.1664H25.1663H25.1662H25.1662H25.1661H25.1661H25.166H25.1659H25.1659H25.1658H25.1658H25.1657H25.1657H25.1656H25.1655H25.1655H25.1654H25.1654H25.1653H25.1652H25.1652H25.1651H25.1651H25.165H25.1649H25.1649H25.1648H25.1648H25.1647H25.1647H25.1646H25.1645H25.1645H25.1644H25.1644H25.1643H25.1642H25.1642H25.1641H25.1641H25.164H25.164H25.1639H25.1638H25.1638H25.1637H25.1637H25.1636H25.1635H25.1635H25.1634H25.1634H25.1633H25.1632H25.1632H25.1631H25.1631H25.163H25.163H25.1629H25.1628H25.1628H25.1627H25.1627H25.1626H25.1625H25.1625H25.1624H25.1624H25.1623H25.1623H25.1622H25.1621H25.1621H25.162H25.162H25.1619H25.1618H25.1618H25.1617H25.1617H25.1616H25.1615H25.1615H25.1614H25.1614H25.1613H25.1613H25.1612H25.1611H25.1611H25.161H25.161H25.1609H25.1608H25.1608H25.1607H25.1607H25.1606H25.1606H25.1605H25.1604H25.1604H25.1603H25.1603H25.1602H25.1601H25.1601H25.16H25.16H25.1599H25.1599H25.1598H25.1597H25.1597H25.1596Z" fill="#78378B" stroke="#78378B"/>
<path d="M36.1596 23.5C36.1596 25.5267 34.5784 27.1651 32.5606 27.25L32.5069 27.232L32.4011 27.2424C32.326 27.2497 32.2402 27.2261 32.1723 27.1761C32.1063 27.1275 32.0813 27.0732 32.0772 27.0314C32.0684 26.9403 32.093 26.8686 32.1257 26.8235C32.1544 26.7838 32.1944 26.7563 32.2526 26.7474C32.3455 26.7403 32.4503 26.74 32.5596 26.74H32.5733L32.587 26.7393C34.312 26.6447 35.6596 25.2256 35.6596 23.49C35.6596 21.6939 34.2057 20.24 32.4096 20.24V20.2399L32.3974 20.2401C32.2755 20.2431 32.1596 20.1363 32.1596 20C32.1596 19.8661 32.2757 19.75 32.4096 19.75C34.4735 19.75 36.1596 21.4361 36.1596 23.5Z" fill="#78378B" stroke="#78378B"/>
<path d="M20.0282 36.6348L20.0256 36.6331C18.7418 35.7833 18.0996 34.6655 18.0996 33.5C18.0996 32.3337 18.7427 31.2056 20.0268 30.3461C21.4283 29.4168 23.2915 28.9375 25.1771 28.9375C27.0633 28.9375 28.921 29.417 30.3119 30.3458L30.3123 30.346C31.589 31.1972 32.2396 32.3161 32.2396 33.48C32.2396 34.6465 31.5964 35.7747 30.312 36.6342C28.9103 37.5685 27.0522 38.05 25.1696 38.05C23.286 38.05 21.4187 37.568 20.0282 36.6348ZM20.3023 30.774C19.2541 31.4727 18.5996 32.4297 18.5996 33.51C18.5996 34.583 19.2671 35.5392 20.3022 36.226C21.6485 37.1285 23.424 37.5625 25.1696 37.5625C26.9154 37.5625 28.6911 37.1284 30.0374 36.2257C31.0853 35.527 31.7396 34.5702 31.7396 33.49C31.7396 32.4168 31.0719 31.4605 30.0365 30.7736C28.6903 29.8764 26.9149 29.445 25.1696 29.445C23.4241 29.445 21.6484 29.8765 20.3023 30.774Z" fill="#78378B" stroke="#78378B"/>
<path d="M34.1004 36.0546L34.1004 36.0543C34.0728 35.9131 34.1599 35.7809 34.2962 35.7485C34.984 35.6059 35.6348 35.3296 36.1537 34.9269C36.8111 34.4299 37.2296 33.756 37.2296 32.99C37.2296 32.2254 36.8125 31.5508 36.1625 31.0622C35.653 30.6693 35.0332 30.4046 34.332 30.2428L34.332 30.2428L34.3294 30.2422C34.1968 30.2124 34.1078 30.0779 34.1377 29.9385C34.1682 29.8062 34.303 29.7178 34.4424 29.7484L34.5496 29.26L34.4417 29.7482C35.239 29.9244 35.9195 30.2362 36.4644 30.6561L36.4644 30.6561L36.4689 30.6595C37.2908 31.2781 37.7296 32.1277 37.7296 32.99C37.7296 33.8491 37.2837 34.7009 36.4562 35.3326L36.4562 35.3326L36.4535 35.3347C35.8997 35.7634 35.1927 36.0833 34.4027 36.2395L34.3716 36.2457L34.3587 36.2499L34.3553 36.25L34.3396 36.25C34.2203 36.25 34.1231 36.1712 34.1004 36.0546ZM34.2196 30.73C33.8196 30.64 33.5596 30.24 33.6496 29.83L34.2196 30.73Z" fill="#78378B" stroke="#78378B"/>
</svg>
