<?xml version="1.0" encoding="UTF-8" standalone="no"?>
<svg
   xmlns:dc="http://purl.org/dc/elements/1.1/"
   xmlns:cc="http://creativecommons.org/ns#"
   xmlns:rdf="http://www.w3.org/1999/02/22-rdf-syntax-ns#"
   xmlns:svg="http://www.w3.org/2000/svg"
   xmlns="http://www.w3.org/2000/svg"
   viewBox="0 0 74.666664 74.666664"
   height="74.666664"
   width="74.666664"
   xml:space="preserve"
   id="svg2"
   version="1.1"><metadata
     id="metadata8"><rdf:RDF><cc:Work
         rdf:about=""><dc:format>image/svg+xml</dc:format><dc:type
           rdf:resource="http://purl.org/dc/dcmitype/StillImage" /></cc:Work></rdf:RDF></metadata><defs
     id="defs6"><clipPath
       id="clipPath22"
       clipPathUnits="userSpaceOnUse"><path
         style="clip-rule:evenodd"
         id="path20"
         d="m 0,40 c 0,8.836555 7.163445,16 16,16 h 24 c 8.836555,0 16,-7.163445 16,-16 V 16 C 56,7.163445 48.836555,0 40,0 H 15.999999 C 7.163443,0 0,7.163445 0,16 Z" /></clipPath><clipPath
       id="clipPath38"
       clipPathUnits="userSpaceOnUse"><path
         style="clip-rule:evenodd"
         id="path36"
         d="m 28,17.25 c -5.93,0 -10.75,4.82 -10.75,10.75 0,1.880001 0.489992,3.729984 1.429993,5.359985 0.209999,0.360001 0.660019,0.48003 1.020019,0.28003 l 8.669983,-4.980011 c 0.360001,-0.209999 0.48,-0.659989 0.279999,-1.019989 -0.209999,-0.360001 -0.659989,-0.48003 -1.019989,-0.28003 l -8,4.590027 C 19.050005,30.720013 18.75,29.380009 18.75,28.01001 c 0,-5.099999 4.15,-9.25 9.25,-9.25 5.099998,0 9.25,4.150001 9.25,9.25 0,5.099998 -4.150002,9.25 -9.25,9.25 -2.02,0 -3.939987,-0.640007 -5.549988,-1.850006 -0.33,-0.25 -0.800018,-0.180008 -1.050018,0.149994 -0.25,0.330001 -0.180006,0.799987 0.149994,1.049987 C 23.419987,38.009987 25.65,38.76001 28,38.76001 c 5.93,0 10.75,-4.82 10.75,-10.75 C 38.75,22.080009 33.93,17.25 28,17.25 Z" /></clipPath><clipPath
       id="clipPath54"
       clipPathUnits="userSpaceOnUse"><path
         style="clip-rule:evenodd"
         id="path52"
         d="m 28,21.25 c -3.719999,0 -6.75,3.029999 -6.75,6.75 0,1.200001 0.319992,2.390015 0.929993,3.420013 0.209999,0.360001 0.669998,0.479989 1.029998,0.269989 0.360001,-0.209999 0.480019,-0.669998 0.27002,-1.029998 -0.469999,-0.8 -0.720001,-1.720003 -0.720001,-2.660004 0,-2.9 2.36,-5.25 5.25,-5.25 2.889999,0 5.25,2.35 5.25,5.25 0,2.9 -2.360001,5.25 -5.25,5.25 -0.779999,0 -1.530022,-0.169998 -2.240021,-0.5 -0.380001,-0.169998 -0.82,-0.01001 -1,0.359985 -0.18,0.379998 -0.01998,0.82 0.360016,1 C 26.030005,34.529984 27,34.75 28,34.75 c 3.720001,0 6.75,-3.030001 6.75,-6.75 0,-3.720001 -3.029999,-6.75 -6.75,-6.75 z" /></clipPath></defs><g
     transform="matrix(1.3333333,0,0,-1.3333333,0,74.666667)"
     id="g10"><g
       id="g12"><path
         id="path14"
         style="fill:#ffffff;fill-opacity:1;fill-rule:nonzero;stroke:none"
         d="m 0,40 c 0,8.836555 7.163445,16 16,16 h 24 c 8.836555,0 16,-7.163445 16,-16 V 16 C 56,7.163445 48.836555,0 40,0 H 15.999999 C 7.163443,0 0,7.163445 0,16 Z" /></g><g
       id="g16"><g
         clip-path="url(#clipPath22)"
         id="g18"><g
           id="g24"><path
             id="path26"
             style="fill:#f2ebf3;fill-opacity:1;fill-rule:nonzero;stroke:none"
             d="m 16,55 h 24 v 2 H 16 Z M 55,40 V 16 h 2 V 40 Z M 40,1 H 15.999999 V -1 H 40 Z M 1,16 V 40 H -1 V 16 Z M 15.999999,1 C 7.715728,1 1,7.715729 1,16 H -1 C -1,6.61116 6.611158,-1 15.999999,-1 Z M 55,16 C 55,7.715729 48.284271,1 40,1 v -2 c 9.38884,0 17,7.61116 17,17 z M 40,55 c 8.284271,0 15,-6.715729 15,-15 h 2 c 0,9.38884 -7.61116,17 -17,17 z M 16,57 C 6.61116,57 -1,49.38884 -1,40 h 2 c 0,8.284271 6.71573,15 15,15 z" /></g></g></g><g
       id="g28"><g
         transform="translate(17.25,17.25)"
         id="g30"><path
           id="path32"
           style="fill:#78378b;fill-opacity:1;fill-rule:nonzero;stroke:none"
           d="M 10.75,0 C 4.82,0 0,4.82 0,10.75 c 0,1.88 0.489993,3.729985 1.429993,5.359985 0.21,0.360001 0.660019,0.48003 1.020019,0.28003 l 8.669983,-4.980011 c 0.36,-0.21 0.479999,-0.65999 0.279999,-1.019989 -0.21,-0.36 -0.659989,-0.480029 -1.019989,-0.28003 l -8,4.590027 C 1.800005,13.470013 1.5,12.13001 1.5,10.76001 c 0,-5.100001 4.15,-9.25 9.25,-9.25 5.1,0 9.25,4.149999 9.25,9.25 0,5.1 -4.15,9.25 -9.25,9.25 -2.02,0 -3.939988,-0.640007 -5.549988,-1.850006 -0.33,-0.25 -0.800018,-0.180006 -1.050018,0.149994 -0.25,0.329999 -0.180006,0.799987 0.149994,1.049987 1.87,1.4 4.100012,2.150025 6.450012,2.150025 5.93,0 10.75,-4.82 10.75,-10.75 C 21.5,4.830009 16.68,0 10.75,0 Z" /></g><g
         clip-path="url(#clipPath38)"
         id="g34"><g
           transform="translate(17.25,17.25)"
           id="g40"><path
             id="path42"
             style="fill:#78378b;fill-opacity:1;fill-rule:nonzero;stroke:none"
             d="m 1.429993,16.109985 -0.86379,0.503878 -0.002484,-0.0043 0.866274,-0.499569 z m 1.020019,0.28003 0.498078,0.867132 -0.00619,0.0036 -0.00624,0.0035 -0.485643,-0.874157 z m 8.669983,-4.980011 0.503883,0.863798 -0.0058,0.0033 L 11.12,11.40997 Z m 0.279999,-1.019989 0.863779,-0.503871 0.0053,0.00906 0.0051,0.00917 -0.874157,0.485644 z m -1.019989,-0.28003 -0.497706,-0.867455 0.012062,-0.0067 0.485644,0.874157 z m -8,4.590027 0.497658,0.867373 -0.93995,0.539301 -0.462193,-0.980169 z m 2.820007,3.459992 -0.600798,0.79941 -0.00306,-0.0023 0.603857,-0.797092 z m -0.900024,1.199981 -0.599325,0.800526 -0.00453,-0.0034 0.603858,-0.797093 z M 10.75,1 C 5.372285,1 1,5.372286 1,10.75 H -1 C -1,4.267715 4.267715,-1 10.75,-1 Z M 1,10.75 c 0,1.706423 0.444766,3.383877 1.296267,4.860416 L 0.563719,16.609554 C -0.46478,14.826094 -1,12.803576 -1,10.75 Z m 1.293772,4.856114 C 2.227633,15.492733 2.07657,15.453524 1.964369,15.515858 l 0.971286,1.748314 C 2.103454,17.726505 1.052353,17.447237 0.566214,16.613857 Z m -0.341838,-0.08323 8.669983,-4.980011 0.996156,1.734265 -8.669983,4.980011 z m 8.66419,-4.976657 c -0.113426,0.06616 -0.152595,0.217278 -0.09029,0.329433 l 1.748314,-0.971287 c 0.462309,0.832155 0.183142,1.883247 -0.650285,2.369412 l -1.007742,-1.727558 z m -0.07991,0.347661 c 0.06613,0.113364 0.217214,0.1526 0.329433,0.09026 L 9.894361,9.235828 c 0.832219,-0.462343 1.883283,-0.183049 2.369412,0.650316 l -1.727558,1.007742 z m 0.341449,0.08347 L 2.877662,15.567384 1.882346,13.832639 9.882345,9.242611 Z M 1.47552,15.126517 C 0.832366,13.762589 0.5,12.276881 0.5,10.76001 h 2 c 0,1.223128 0.267643,2.417426 0.78449,3.513497 z M 0.5,10.76001 c 0,-5.652285 4.597715,-10.25 10.25,-10.25 v 2 c -4.547715,0 -8.25,3.702285 -8.25,8.25 z m 10.25,-10.25 c 5.652285,0 10.25,4.597715 10.25,10.25 h -2 c 0,-4.547715 -3.702285,-8.25 -8.25,-8.25 z m 10.25,10.25 c 0,5.652284 -4.597715,10.25 -10.25,10.25 v -2 c 4.547715,0 8.25,-3.702285 8.25,-8.25 z m -10.25,10.25 c -2.236015,0 -4.366988,-0.709988 -6.150782,-2.050602 L 5.800807,17.3606 C 7.237013,18.439985 8.946015,19.01001 10.75,19.01001 Z M 4.596155,18.957096 c 0.1202,0.09106 0.27504,0.05694 0.350931,-0.04324 L 3.352902,17.706141 c 0.575891,-0.760178 1.670768,-0.93429 2.450968,-0.34323 z m 0.350931,-0.04324 C 5.038153,18.793646 5.004014,18.638779 4.903845,18.562893 L 3.69613,20.157078 C 2.935962,19.581192 2.761834,18.486349 3.352902,17.706141 l 1.594184,1.207714 z M 4.899302,18.559471 C 6.597596,19.830921 8.617654,20.51001 10.75,20.51001 v 2 c -2.567654,0 -5.00762,-0.820961 -7.049327,-2.34951 z M 10.75,20.51001 c 5.377714,0 9.75,-4.372284 9.75,-9.75 h 2 c 0,6.482284 -5.267715,11.75 -11.75,11.75 z m 9.75,-9.75 C 20.5,5.381083 16.126505,1 10.75,1 v -2 c 6.483496,0 11.75,5.278936 11.75,11.76001 z" /></g></g></g><g
       id="g44"><g
         transform="translate(21.25,21.25)"
         id="g46"><path
           id="path48"
           style="fill:#78378b;fill-opacity:1;fill-rule:nonzero;stroke:none"
           d="M 6.75,0 C 3.03,0 0,3.03 0,6.75 c 0,1.2 0.319993,2.390014 0.929993,3.420013 0.21,0.360001 0.669998,0.479989 1.029998,0.269989 0.360001,-0.21 0.48002,-0.669998 0.27002,-1.029998 C 1.760011,8.610003 1.51001,7.69 1.51001,6.75 c 0,-2.9 2.36,-5.25 5.25,-5.25 2.89,0 5.25,2.35 5.25,5.25 0,2.9 -2.36,5.25 -5.25,5.25 -0.78,0 -1.530021,-0.17 -2.240021,-0.5 -0.38,-0.17 -0.82,-0.01001 -1,0.359985 -0.18,0.38 -0.019984,0.82 0.360016,1 C 4.780005,13.279985 5.75,13.5 6.75,13.5 10.47,13.5 13.5,10.47 13.5,6.75 13.5,3.03 10.47,0 6.75,0 Z" /></g><g
         clip-path="url(#clipPath54)"
         id="g50"><g
           transform="translate(21.25,21.25)"
           id="g56"><path
             id="path58"
             style="fill:#78378b;fill-opacity:1;fill-rule:nonzero;stroke:none"
             d="M 0.929993,10.170013 1.790439,9.660429 1.793769,9.666139 0.92999,10.17001 Z M 2.230011,9.410004 3.092226,8.903452 3.09379,8.906133 Z M 4.519989,11.5 l 0.408366,-0.912818 0.00658,0.0029 0.00654,0.003 z m -1,0.359985 -0.903787,-0.42811 0.00455,-0.0094 0.899235,0.437465 z m 0.360016,1 -0.422892,0.906199 -0.00519,-0.0025 0.428086,-0.903738 z M 6.75,1 C 3.582285,1 1,3.582285 1,6.75 H -1 C -1,2.477715 2.477715,-1 6.75,-1 Z M 1,6.75 C 1,7.774265 1.273585,8.787751 1.79042,9.66044 L 0.069565,10.679586 C -0.633599,9.492275 -1,8.125735 -1,6.75 Z M 1.793772,9.666142 C 1.724223,9.546917 1.570996,9.509212 1.45612,9.576223 l 1.007742,1.727559 c -0.834875,0.48701 -1.9081,0.209328 -2.397648,-0.629898 z M 1.45612,9.576223 C 1.336957,9.645735 1.299185,9.798937 1.366232,9.913875 L 3.09379,8.906133 C 3.580837,9.741071 3.303025,10.81427 2.463862,11.303782 Z M 1.3678,9.916553 C 0.806887,8.961807 0.51001,7.866735 0.51001,6.75 h 2 c 0,0.763266 0.203125,1.5082 0.582212,2.153455 z M 0.51001,6.75 c 0,-3.453525 2.808955,-6.25 6.25,-6.25 v 2 c -2.338956,0 -4.25,1.903524 -4.25,4.25 z m 6.25,-6.25 c 3.441045,0 6.25,2.796475 6.25,6.25 h -2 c 0,-2.346476 -1.911044,-4.25 -4.25,-4.25 z m 6.25,6.25 c 0,3.453524 -2.808955,6.25 -6.25,6.25 v -2 c 2.338956,0 4.25,-1.903524 4.25,-4.25 z M 6.76001,13 C 5.830482,13 4.936933,12.796528 4.098503,12.406835 l 0.842972,-1.81367 C 5.523045,10.863472 6.129538,11 6.76001,11 Z M 4.111623,12.412818 c 0.109067,0.04879 0.249715,0.0036 0.307601,-0.115367 L 2.620754,11.42252 C 3.03864,10.563532 4.059288,10.198388 4.928355,10.587182 Z m 0.312104,-0.124746 c 0.025958,-0.0548 0.030796,-0.12635 0.00682,-0.192749 C 4.40677,12.02949 4.359029,11.980376 4.308091,11.956247 L 3.451919,13.763723 C 2.578832,13.350156 2.196978,12.317032 2.616251,11.431899 Z M 4.30289,11.953802 C 5.072984,12.313179 5.898865,12.5 6.75,12.5 v 2 C 5.601135,14.5 4.487026,14.246792 3.457119,13.766169 Z M 6.75,12.5 c 3.167715,0 5.75,-2.582285 5.75,-5.75 h 2 c 0,4.272285 -3.477715,7.75 -7.75,7.75 z M 12.5,6.75 C 12.5,3.582285 9.917715,1 6.75,1 v -2 c 4.272285,0 7.75,3.477715 7.75,7.75 z" /></g></g></g></g></svg>