<svg width="56" height="56" viewBox="0 0 56 56" fill="none" xmlns="http://www.w3.org/2000/svg">
<rect x="0.5" y="0.5" width="55" height="55" rx="15.5" fill="white"/>
<rect x="0.5" y="0.5" width="55" height="55" rx="15.5" stroke="#F2EBF3"/>
<path d="M31 38.25H25C22.3424 38.25 20.5649 37.6803 19.4423 36.5577C18.3197 35.4351 17.75 33.6576 17.75 31V25C17.75 22.3424 18.3197 20.5649 19.4423 19.4423C20.5649 18.3197 22.3424 17.75 25 17.75H31C33.6576 17.75 35.4351 18.3197 36.5577 19.4423C37.6803 20.5649 38.25 22.3424 38.25 25V31C38.25 33.6576 37.6803 35.4351 36.5577 36.5577C35.4351 37.6803 33.6576 38.25 31 38.25ZM25 18.25C22.6597 18.25 20.9243 18.6611 19.7927 19.7927C18.6611 20.9243 18.25 22.6597 18.25 25V31C18.25 33.3403 18.6611 35.0757 19.7927 36.2073C20.9243 37.3389 22.6597 37.75 25 37.75H31C33.3403 37.75 35.0757 37.3389 36.2073 36.2073C37.3389 35.0757 37.75 33.3403 37.75 31V25C37.75 22.6597 37.3389 20.9243 36.2073 19.7927C35.0757 18.6611 33.3403 18.25 31 18.25H25Z" fill="#322D1C" stroke="#322D1C"/>
<path d="M24.8199 25.2499C24.0956 25.2499 23.3749 24.9778 22.8235 24.4264C22.7288 24.3317 22.7288 24.1682 22.8235 24.0735C22.9182 23.9788 23.0817 23.9788 23.1764 24.0735C24.0817 24.9788 25.5582 24.9788 26.4635 24.0735C26.5582 23.9788 26.7217 23.9788 26.8164 24.0735C26.9108 24.1679 26.9111 24.3305 26.8174 24.4253C26.2627 24.9707 25.5401 25.2499 24.8199 25.2499Z" fill="#322D1C" stroke="#322D1C"/>
<path d="M31.18 25.2499C30.4557 25.2499 29.735 24.9778 29.1836 24.4264C29.0889 24.3317 29.0889 24.1682 29.1836 24.0735C29.2783 23.9788 29.4418 23.9788 29.5365 24.0735C30.4418 24.9788 31.9183 24.9788 32.8236 24.0735C32.9183 23.9788 33.0818 23.9788 33.1765 24.0735C33.2709 24.1679 33.2712 24.3305 33.1775 24.4253C32.6228 24.9707 31.9002 25.2499 31.18 25.2499Z" fill="#322D1C" stroke="#322D1C"/>
<path d="M28 34.65C25.3768 34.65 23.25 32.5145 23.25 29.9C23.25 29.2661 23.7661 28.75 24.4 28.75H31.6C32.2339 28.75 32.75 29.2661 32.75 29.9C32.75 32.5145 30.6232 34.65 28 34.65ZM24.4 29.25C24.0439 29.25 23.75 29.5439 23.75 29.9C23.75 32.2461 25.6539 34.15 28 34.15C30.3461 34.15 32.25 32.2461 32.25 29.9C32.25 29.5439 31.9561 29.25 31.6 29.25H24.4Z" fill="#322D1C" stroke="#322D1C"/>
</svg>
