<svg width="118" height="118" viewBox="0 0 118 118" fill="none" xmlns="http://www.w3.org/2000/svg">
<g filter="url(#filter0_bdi_1_2332)">
<rect x="33.2349" y="10.1212" width="64" height="64" rx="16" transform="rotate(10 33.2349 10.1212)" fill="white" fill-opacity="0.1" shape-rendering="crispEdges"/>
<rect x="33.6404" y="10.7004" width="63" height="63" rx="15.5" transform="rotate(10 33.6404 10.7004)" stroke="url(#paint0_linear_1_2332)" stroke-opacity="0.2" shape-rendering="crispEdges"/>
<g opacity="0.6">
<path d="M60.9125 53.4298C60.4515 56.0445 58.8973 58.2074 56.7964 59.4972C54.9805 60.6392 52.7613 61.1314 50.4864 60.7302C45.5969 59.8681 42.3238 55.1937 43.186 50.3041C43.7312 47.212 45.8131 44.7666 48.4996 43.6098C48.7783 43.4898 49.0882 43.6651 49.1652 43.9585C50.0063 47.1609 52.2415 49.8496 55.2338 51.2557C56.1176 51.6857 57.0691 51.9905 58.0884 52.1702C58.9028 52.3139 59.6939 52.3632 60.4744 52.3368C60.7676 52.3269 61.0178 52.559 60.9905 52.8511C60.9723 53.0452 60.946 53.2401 60.9125 53.4298Z" fill="url(#paint1_linear_1_2332)"/>
<path d="M56.5348 59.0711L56.5348 59.0711L56.5302 59.074C54.8156 60.1523 52.7217 60.6167 50.5733 60.2378C45.9556 59.4236 42.8642 55.0086 43.6784 50.3909C44.1917 47.48 46.148 45.1741 48.6783 44.0773C48.6796 44.0795 48.6808 44.0822 48.6816 44.0855C49.56 47.4297 51.8929 50.2371 55.0181 51.7067C55.9449 52.1573 56.9401 52.4755 58.0015 52.6626C58.8513 52.8125 59.6765 52.864 60.4896 52.8366C60.4728 53.0066 60.4494 53.1771 60.4201 53.343C59.9847 55.8125 58.5175 57.8539 56.5348 59.0711Z" stroke="white" stroke-opacity="0.5"/>
<path d="M68.9052 42.654C68.702 43.8062 68.2851 44.8751 67.7091 45.8092C66.2366 48.1998 63.7013 49.7938 60.8678 50.0558C60.0927 50.1323 59.2915 50.0977 58.4791 49.9544C57.6666 49.8112 56.9019 49.5697 56.1998 49.2327C53.6267 48.0174 51.7895 45.6524 51.2234 42.9024C51.0017 41.8275 50.9755 40.6805 51.1786 39.5283C52.0408 34.6387 56.7152 31.3657 61.6047 32.2279C66.4943 33.09 69.7673 37.7644 68.9052 42.654Z" fill="url(#paint2_linear_1_2332)"/>
<path d="M67.2835 45.5468L67.2834 45.547C65.8927 47.8048 63.4975 49.3105 60.8217 49.5579L60.8186 49.5582C60.0919 49.63 59.3365 49.5979 58.5659 49.462C57.7952 49.3261 57.0745 49.0979 56.4161 48.7819L56.4133 48.7806C53.9835 47.633 52.2477 45.3988 51.7131 42.8016L51.7131 42.8013C51.504 41.7875 51.479 40.7043 51.671 39.6151C52.4852 34.9975 56.9003 31.9061 61.5179 32.7203C66.1355 33.5345 69.227 37.9495 68.4128 42.5672C68.2207 43.6563 67.8267 44.6657 67.2835 45.5468Z" stroke="white" stroke-opacity="0.5"/>
<path d="M72.7302 55.5136C71.8681 60.4031 67.1937 63.6762 62.3041 62.814C61.0839 62.5988 59.9586 62.1459 58.9808 61.5088C58.6951 61.3227 58.7079 60.911 58.978 60.703C61.1603 59.0226 62.6428 56.5743 63.1283 53.8205C63.2169 53.3182 63.2612 52.8082 63.2706 52.3224L63.2722 52.2187C63.2754 52.0002 63.4205 51.8101 63.6278 51.741C65.9052 50.9817 67.9001 49.5051 69.2821 47.5065C69.4548 47.2568 69.8062 47.1978 70.0271 47.406C72.1557 49.4119 73.2754 52.4217 72.7302 55.5136Z" fill="url(#paint3_linear_1_2332)"/>
<path d="M63.7705 52.3322L63.7706 52.3322L63.7706 52.3298L63.7721 52.2261C63.7722 52.2258 63.7726 52.225 63.7734 52.2239C63.7756 52.2209 63.7797 52.2174 63.786 52.2154C66.1644 51.4223 68.2488 49.8799 69.6933 47.7909C69.6953 47.788 69.6974 47.7859 69.6993 47.7842C71.7016 49.6803 72.751 52.5161 72.2378 55.4267C71.4236 60.0444 67.0086 63.1358 62.3909 62.3216C61.247 62.1199 60.1931 61.6975 59.277 61.1049C59.2785 61.1031 59.2805 61.1011 59.2831 61.0991C61.5651 59.342 63.1137 56.783 63.6208 53.9073C63.7143 53.3768 63.7606 52.8408 63.7705 52.3322Z" stroke="white" stroke-opacity="0.5"/>
</g>
</g>
<defs>
<filter id="filter0_bdi_1_2332" x="-1.87863" y="-1.87878" width="122.141" height="122.141" filterUnits="userSpaceOnUse" color-interpolation-filters="sRGB">
<feFlood flood-opacity="0" result="BackgroundImageFix"/>
<feGaussianBlur in="BackgroundImageFix" stdDeviation="2"/>
<feComposite in2="SourceAlpha" operator="in" result="effect1_backgroundBlur_1_2332"/>
<feColorMatrix in="SourceAlpha" type="matrix" values="0 0 0 0 0 0 0 0 0 0 0 0 0 0 0 0 0 0 127 0" result="hardAlpha"/>
<feOffset dy="12"/>
<feGaussianBlur stdDeviation="12"/>
<feComposite in2="hardAlpha" operator="out"/>
<feColorMatrix type="matrix" values="0 0 0 0 0.0509804 0 0 0 0 0.0509804 0 0 0 0 0.0705882 0 0 0 0.25 0"/>
<feBlend mode="normal" in2="effect1_backgroundBlur_1_2332" result="effect2_dropShadow_1_2332"/>
<feBlend mode="normal" in="SourceGraphic" in2="effect2_dropShadow_1_2332" result="shape"/>
<feColorMatrix in="SourceAlpha" type="matrix" values="0 0 0 0 0 0 0 0 0 0 0 0 0 0 0 0 0 0 127 0" result="hardAlpha"/>
<feOffset dy="-6"/>
<feGaussianBlur stdDeviation="2"/>
<feComposite in2="hardAlpha" operator="arithmetic" k2="-1" k3="1"/>
<feColorMatrix type="matrix" values="0 0 0 0 1 0 0 0 0 1 0 0 0 0 1 0 0 0 0.15 0"/>
<feBlend mode="normal" in2="shape" result="effect3_innerShadow_1_2332"/>
</filter>
<linearGradient id="paint0_linear_1_2332" x1="65.2349" y1="10.1212" x2="65.2349" y2="74.1212" gradientUnits="userSpaceOnUse">
<stop stop-color="white"/>
<stop offset="1" stop-color="white" stop-opacity="0"/>
</linearGradient>
<linearGradient id="paint1_linear_1_2332" x1="53.4063" y1="44.1707" x2="50.4864" y2="60.7302" gradientUnits="userSpaceOnUse">
<stop stop-color="white"/>
<stop offset="1" stop-color="white" stop-opacity="0.5"/>
</linearGradient>
<linearGradient id="paint2_linear_1_2332" x1="61.6047" y1="32.2279" x2="58.4791" y2="49.9544" gradientUnits="userSpaceOnUse">
<stop stop-color="white"/>
<stop offset="1" stop-color="white" stop-opacity="0.5"/>
</linearGradient>
<linearGradient id="paint3_linear_1_2332" x1="67.6245" y1="46.6777" x2="64.7046" y2="63.2373" gradientUnits="userSpaceOnUse">
<stop stop-color="white"/>
<stop offset="1" stop-color="white" stop-opacity="0.5"/>
</linearGradient>
</defs>
</svg>
