<svg width="56" height="56" viewBox="0 0 56 56" fill="none" xmlns="http://www.w3.org/2000/svg">
<rect x="0.5" y="0.5" width="55" height="55" rx="15.5" fill="white"/>
<rect x="0.5" y="0.5" width="55" height="55" rx="15.5" stroke="#EAEAE9"/>
<path d="M27.5265 29.5335L27.88 29.8871L28.2336 29.5335L30.2636 27.5035C30.3583 27.4088 30.5217 27.4088 30.6165 27.5035C30.7112 27.5983 30.7112 27.7617 30.6165 27.8564L28.0565 30.4164C28.0052 30.4677 27.9446 30.49 27.88 30.49C27.8155 30.49 27.7549 30.4677 27.7036 30.4164L25.1436 27.8564C25.0488 27.7617 25.0488 27.5983 25.1436 27.5035C25.2383 27.4088 25.4017 27.4088 25.4965 27.5035L27.5265 29.5335Z" fill="#78378B" stroke="#78378B"/>
<path d="M27.88 30.42C27.7461 30.42 27.63 30.3039 27.63 30.17V20C27.63 19.8661 27.7461 19.75 27.88 19.75C28.0139 19.75 28.13 19.8661 28.13 20V30.17C28.13 30.3039 28.0139 30.42 27.88 30.42Z" fill="#78378B" stroke="#78378B"/>
<path d="M28 36.43C25.5446 36.43 23.4885 35.5739 22.0473 34.1327C20.6061 32.6915 19.75 30.6354 19.75 28.18C19.75 28.0461 19.8661 27.93 20 27.93C20.1339 27.93 20.25 28.0461 20.25 28.18C20.25 30.4344 21.0387 32.3783 22.4202 33.7598C23.8017 35.1413 25.7456 35.93 28 35.93C30.2544 35.93 32.1983 35.1413 33.5798 33.7598C34.9613 32.3783 35.75 30.4344 35.75 28.18C35.75 28.0461 35.8661 27.93 36 27.93C36.1339 27.93 36.25 28.0461 36.25 28.18C36.25 30.6354 35.3939 32.6915 33.9527 34.1327C32.5115 35.5739 30.4554 36.43 28 36.43Z" fill="#78378B" stroke="#78378B"/>
</svg>
