<svg width="118" height="118" viewBox="0 0 118 118" fill="none" xmlns="http://www.w3.org/2000/svg">
<g filter="url(#filter0_bdi_108_20757)">
<rect x="33.2349" y="10.1212" width="64" height="64" rx="16" transform="rotate(10 33.2349 10.1212)" fill="white" fill-opacity="0.1" shape-rendering="crispEdges"/>
<rect x="33.6404" y="10.7004" width="63" height="63" rx="15.5" transform="rotate(10 33.6404 10.7004)" stroke="url(#paint0_linear_108_20757)" stroke-opacity="0.2" shape-rendering="crispEdges"/>
<g opacity="0.6">
<path d="M68.2151 35.7696L68.6214 33.4651C68.7282 32.8595 68.3145 32.2687 67.7089 32.1619C67.1032 32.0551 66.5124 32.4688 66.4056 33.0744L66.0149 35.2903L56.413 33.5972L56.8037 31.3814C56.9105 30.7757 56.4968 30.1849 55.8912 30.0781C55.2855 29.9713 54.6947 30.385 54.5879 30.9907L54.1816 33.2951C50.128 32.9611 47.7735 34.9982 46.8555 38.4767C46.7504 38.8999 47.0425 39.3169 47.4561 39.3898L72.4505 43.797C72.8789 43.8726 73.2985 43.5658 73.3272 43.1443C73.6542 39.5617 72.1385 36.8422 68.2151 35.7696Z" fill="url(#paint1_linear_108_20757)"/>
<path d="M67.7227 35.6828L67.6435 36.1317L68.0833 36.2519C69.9546 36.7635 71.1995 37.6515 71.9471 38.7901C72.6973 39.9327 72.9855 41.3867 72.8292 43.0989L72.8291 43.0989L72.8283 43.1105C72.825 43.159 72.7989 43.2125 72.7413 43.2552C72.683 43.2983 72.6087 43.3172 72.5373 43.3046L47.5429 38.8974C47.4014 38.8725 47.3101 38.7274 47.3402 38.5997C47.7791 36.9396 48.5469 35.6734 49.6416 34.8571C50.7335 34.0428 52.207 33.6341 54.1405 33.7934L54.5948 33.8309L54.674 33.3819L55.0803 31.0775C55.1392 30.7438 55.4707 30.5117 55.8044 30.5705C56.1381 30.6294 56.3702 30.9608 56.3113 31.2945L55.9206 33.5104L55.8338 34.0028L56.3262 34.0896L65.9281 35.7827L66.4205 35.8695L66.5073 35.3771L66.898 33.1613C66.9569 32.8276 67.2884 32.5954 67.6221 32.6543C67.9558 32.7131 68.1879 33.0446 68.129 33.3783L67.7227 35.6828Z" stroke="white" stroke-opacity="0.5"/>
<path d="M71.3802 45.893L47.7448 41.7254C46.9323 41.5822 46.1504 42.1297 46.0071 42.9422L44.4026 52.0418C43.6212 56.4734 45.3161 59.8186 50.4863 60.7302L62.304 62.814C67.4742 63.7257 70.211 61.1619 70.9924 56.7303L72.5969 47.6307C72.7402 46.8182 72.1926 46.0363 71.3802 45.893ZM53.2609 55.4468C53.1766 55.4928 53.0897 55.5537 53.0081 55.585C52.909 55.6284 52.8126 55.6571 52.7187 55.671C52.6223 55.6997 52.5284 55.7136 52.4372 55.7128C52.3312 55.7093 52.24 55.7084 52.1366 55.6902C51.9445 55.6564 51.7603 55.5782 51.596 55.4731C51.417 55.3653 51.2875 55.2359 51.1633 55.0769C50.9469 54.7493 50.8521 54.3366 50.9198 53.9525C50.9875 53.5685 51.2178 53.213 51.5331 52.9792C51.7043 52.8723 51.8703 52.795 52.0753 52.755C52.3621 52.6837 52.6627 52.7062 52.9477 52.8174C53.0338 52.8478 53.1172 52.893 53.198 52.9529C53.2814 52.9981 53.3622 53.0581 53.4405 53.1328C53.5039 53.2049 53.5673 53.277 53.6308 53.3491C53.8472 53.6767 53.942 54.0894 53.8742 54.4735C53.8065 54.8576 53.5763 55.213 53.2609 55.4468ZM54.1726 50.2765C53.845 50.4929 53.4323 50.5877 53.0482 50.52C52.6641 50.4523 52.3087 50.222 52.0749 49.9066C51.8585 49.5791 51.7637 49.1664 51.8315 48.7823C51.8992 48.3982 52.1294 48.0428 52.4448 47.809C52.9313 47.4683 53.6048 47.45 54.1097 47.7827C54.2887 47.8904 54.4329 48.0225 54.5424 48.1789C54.7588 48.5064 54.8536 48.9192 54.7859 49.3032C54.7182 49.6873 54.488 50.0427 54.1726 50.2765ZM58.4312 56.3584C58.1036 56.5748 57.6909 56.6696 57.3068 56.6019C56.9227 56.5341 56.5673 56.3039 56.3335 55.9885C56.1171 55.661 56.0223 55.2483 56.0901 54.8642C56.1578 54.4801 56.388 54.1247 56.7034 53.8909C57.3463 53.4407 58.3508 53.6178 58.801 54.2608C59.0174 54.5883 59.1122 55.0011 59.0445 55.3851C58.9768 55.7692 58.7465 56.1246 58.4312 56.3584ZM59.3428 51.1882C59.2585 51.2342 59.1742 51.2803 59.09 51.3264C58.9909 51.3698 58.8945 51.3985 58.8006 51.4124C58.7042 51.4411 58.6103 51.455 58.5191 51.4542C58.4131 51.4507 58.3219 51.4499 58.2184 51.4316C57.8344 51.3639 57.4789 51.1337 57.2452 50.8183C57.0288 50.4907 56.934 50.078 57.0017 49.6939C57.0694 49.3099 57.2996 48.9544 57.615 48.7207C57.7714 48.6112 57.9522 48.5364 58.1572 48.4964C58.7455 48.3564 59.372 48.604 59.7127 49.0905C59.9291 49.4181 60.0239 49.8308 59.9561 50.2149C59.8884 50.599 59.6582 50.9544 59.3428 51.1882ZM63.6014 57.2701C63.2738 57.4865 62.8611 57.5812 62.477 57.5135C62.093 57.4458 61.7375 57.2156 61.5038 56.9002C61.2873 56.5726 61.1926 56.1599 61.2603 55.7758C61.328 55.3918 61.5582 55.0363 61.8736 54.8026C62.5166 54.3524 63.5211 54.5295 63.9713 55.1724C64.1877 55.5 64.2824 55.9127 64.2147 56.2968C64.147 56.6809 63.9168 57.0363 63.6014 57.2701ZM64.513 52.0998C64.4288 52.1459 64.3445 52.192 64.2602 52.238C64.1612 52.2815 64.0647 52.3102 63.9709 52.3241C63.8744 52.3528 63.7806 52.3667 63.6893 52.3658C63.5833 52.3624 63.4773 52.3589 63.3887 52.3433C63.0046 52.2756 62.6492 52.0453 62.4154 51.73C62.199 51.4024 62.1042 50.9897 62.1719 50.6056C62.2397 50.2215 62.4699 49.8661 62.7853 49.6323C62.9564 49.5254 63.1224 49.4481 63.3275 49.4081C63.6142 49.3368 63.9148 49.3593 64.1999 49.4705C64.2859 49.5009 64.3693 49.5461 64.4501 49.606C64.5336 49.6512 64.6144 49.7111 64.6926 49.7858C64.756 49.858 64.8195 49.9301 64.8829 50.0022C65.0993 50.3297 65.1941 50.7425 65.1264 51.1265C65.0586 51.5106 64.8284 51.866 64.513 52.0998Z" fill="url(#paint2_linear_108_20757)"/>
<path d="M53.5007 55.8855L53.531 55.869L53.5587 55.8484C53.9698 55.5436 54.2752 55.0787 54.3666 54.5603C54.458 54.0419 54.3301 53.5005 54.048 53.0735L54.029 53.0447L54.0062 53.0189L53.911 52.9107L53.8159 52.8025L53.8015 52.7862L53.7858 52.7712C53.6887 52.6784 53.5828 52.5969 53.4675 52.5308C53.3609 52.4552 53.2458 52.3934 53.1223 52.3489C52.7523 52.2061 52.3534 52.1735 51.9671 52.2667C51.6912 52.3224 51.4714 52.4283 51.2683 52.5552L51.2514 52.5657L51.2354 52.5776C50.8242 52.8824 50.5188 53.3473 50.4274 53.8657C50.336 54.3841 50.464 54.9255 50.7461 55.3525L50.7571 55.3691L50.7693 55.3848C50.9178 55.5748 51.0894 55.7506 51.3323 55.8979C51.5419 56.0311 51.7854 56.136 52.0497 56.1826C52.1797 56.2055 52.2991 56.209 52.3881 56.2115C52.3995 56.2118 52.4105 56.2122 52.4209 56.2125L52.4209 56.2126L52.4325 56.2127C52.5667 56.214 52.6988 56.1952 52.8276 56.1599C52.9551 56.1378 53.0792 56.0989 53.1993 56.047C53.2755 56.0166 53.3422 55.9786 53.3863 55.9528C53.4111 55.9383 53.429 55.9275 53.4439 55.9185C53.4653 55.9057 53.4804 55.8966 53.5007 55.8855ZM54.4482 50.6937L54.4595 50.6862L54.4703 50.6782C54.8815 50.3734 55.1869 49.9084 55.2783 49.3901C55.3697 48.8717 55.2417 48.3303 54.9596 47.9033L54.9598 47.9032L54.952 47.8921C54.8006 47.6759 54.6056 47.4991 54.3761 47.3595C53.6977 46.9177 52.8064 46.9454 52.158 47.3994L52.1579 47.3993L52.147 47.4073C51.7359 47.7121 51.4305 48.1771 51.3391 48.6955C51.2477 49.2138 51.3756 49.7552 51.6577 50.1823L51.6652 50.1935L51.6732 50.2044C51.978 50.6156 52.443 50.921 52.9614 51.0124C53.4798 51.1038 54.0211 50.9758 54.4482 50.6937ZM58.7068 56.7756L58.718 56.7681L58.7289 56.7601C59.1401 56.4553 59.4455 55.9903 59.5369 55.472C59.6283 54.9536 59.5003 54.4122 59.2182 53.9852L59.2183 53.9851L59.2106 53.974C58.8978 53.5273 58.4082 53.2611 57.9113 53.1735C57.4144 53.0859 56.8633 53.1685 56.4166 53.4813L56.4165 53.4812L56.4056 53.4892C55.9945 53.794 55.6891 54.259 55.5976 54.7774C55.5062 55.2957 55.6342 55.8371 55.9163 56.2642L55.9238 56.2754L55.9318 56.2863C56.2366 56.6975 56.7016 57.0029 57.22 57.0943C57.7383 57.1857 58.2797 57.0577 58.7068 56.7756ZM59.5826 51.6269L59.6129 51.6104L59.6406 51.5899C60.0517 51.2851 60.3571 50.8201 60.4485 50.3017C60.5399 49.7833 60.412 49.242 60.1298 48.8149L60.13 48.8148L60.1222 48.8037C59.6682 48.1553 58.8401 47.8244 58.0515 48.0076C57.7882 48.0603 57.5444 48.1597 57.3282 48.3111L57.3281 48.3109L57.3173 48.319C56.9061 48.6238 56.6007 49.0887 56.5093 49.6071C56.4179 50.1255 56.5459 50.6669 56.828 51.0939L56.8354 51.1052L56.8435 51.1161C57.1483 51.5272 57.6132 51.8326 58.1316 51.924C58.2616 51.9469 58.381 51.9504 58.47 51.9529C58.4814 51.9533 58.4924 51.9536 58.5028 51.9539L58.5028 51.954L58.5144 51.9542C58.6486 51.9554 58.7807 51.9366 58.9095 51.9013C59.0404 51.8786 59.1678 51.8382 59.2909 51.7842L59.3107 51.7755L59.3298 51.7651L59.4562 51.696L59.5826 51.6269ZM63.877 57.6872L63.8883 57.6798L63.8991 57.6717C64.3103 57.367 64.6157 56.902 64.7071 56.3836C64.7985 55.8652 64.6706 55.3238 64.3884 54.8968L64.3886 54.8967L64.3808 54.8856C64.068 54.4389 63.5785 54.1728 63.0815 54.0852C62.5846 53.9975 62.0336 54.0802 61.5868 54.393L61.5867 54.3928L61.5759 54.4009C61.1647 54.7057 60.8593 55.1706 60.7679 55.689C60.6765 56.2074 60.8044 56.7488 61.0866 57.1758L61.094 57.1871L61.1021 57.1979C61.4069 57.6091 61.8718 57.9145 62.3902 58.0059C62.9086 58.0973 63.45 57.9694 63.877 57.6872ZM64.7528 52.5386L64.7831 52.522L64.8108 52.5015C65.222 52.1967 65.5274 51.7317 65.6188 51.2134C65.7102 50.695 65.5822 50.1536 65.3001 49.7266L65.2811 49.6978L65.2583 49.6719L65.1632 49.5638L65.068 49.4556L65.0537 49.4393L65.038 49.4243C64.9408 49.3315 64.8349 49.25 64.7196 49.1838C64.613 49.1083 64.4979 49.0464 64.3744 49.0019C64.0044 48.8592 63.6055 48.8265 63.2192 48.9198C62.9433 48.9755 62.7236 49.0813 62.5204 49.2082L62.5035 49.2188L62.4875 49.2306C62.0763 49.5354 61.7709 50.0004 61.6795 50.5188C61.5881 51.0371 61.7161 51.5785 61.9982 52.0056L62.0057 52.0168L62.0137 52.0277C62.3185 52.4389 62.7835 52.7443 63.3019 52.8357C63.4263 52.8576 63.5634 52.862 63.6588 52.8651L63.673 52.8656L63.673 52.8657L63.6846 52.8658C63.8188 52.8671 63.951 52.8482 64.0797 52.813C64.2107 52.7902 64.338 52.7499 64.4611 52.6959L64.481 52.6872L64.5 52.6768L64.6264 52.6077L64.7528 52.5386ZM47.658 42.2178L71.2934 46.3854C71.8339 46.4807 72.1998 47.0033 72.1045 47.5439L70.5 56.6435C70.1226 58.7838 69.2862 60.3978 67.9923 61.3772C66.7056 62.351 64.8821 62.7609 62.3908 62.3216L50.5731 60.2378C48.0818 59.7985 46.5085 58.7897 45.6325 57.4346C44.7515 56.0717 44.5176 54.269 44.895 52.1286L46.4995 43.029C46.5948 42.4885 47.1174 42.1225 47.658 42.2178Z" stroke="white" stroke-opacity="0.5"/>
</g>
</g>
<defs>
<filter id="filter0_bdi_108_20757" x="-1.87842" y="-1.87878" width="122.141" height="122.141" filterUnits="userSpaceOnUse" color-interpolation-filters="sRGB">
<feFlood flood-opacity="0" result="BackgroundImageFix"/>
<feGaussianBlur in="BackgroundImageFix" stdDeviation="2"/>
<feComposite in2="SourceAlpha" operator="in" result="effect1_backgroundBlur_108_20757"/>
<feColorMatrix in="SourceAlpha" type="matrix" values="0 0 0 0 0 0 0 0 0 0 0 0 0 0 0 0 0 0 127 0" result="hardAlpha"/>
<feOffset dy="12"/>
<feGaussianBlur stdDeviation="12"/>
<feComposite in2="hardAlpha" operator="out"/>
<feColorMatrix type="matrix" values="0 0 0 0 0.0509804 0 0 0 0 0.0509804 0 0 0 0 0.0705882 0 0 0 0.25 0"/>
<feBlend mode="normal" in2="effect1_backgroundBlur_108_20757" result="effect2_dropShadow_108_20757"/>
<feBlend mode="normal" in="SourceGraphic" in2="effect2_dropShadow_108_20757" result="shape"/>
<feColorMatrix in="SourceAlpha" type="matrix" values="0 0 0 0 0 0 0 0 0 0 0 0 0 0 0 0 0 0 127 0" result="hardAlpha"/>
<feOffset dy="-6"/>
<feGaussianBlur stdDeviation="2"/>
<feComposite in2="hardAlpha" operator="arithmetic" k2="-1" k3="1"/>
<feColorMatrix type="matrix" values="0 0 0 0 1 0 0 0 0 1 0 0 0 0 1 0 0 0 0.15 0"/>
<feBlend mode="normal" in2="shape" result="effect3_innerShadow_108_20757"/>
</filter>
<linearGradient id="paint0_linear_108_20757" x1="65.2349" y1="10.1212" x2="65.2349" y2="74.1212" gradientUnits="userSpaceOnUse">
<stop stop-color="white"/>
<stop offset="1" stop-color="white" stop-opacity="0"/>
</linearGradient>
<linearGradient id="paint1_linear_108_20757" x1="61.8011" y1="31.1202" x2="59.9543" y2="41.5936" gradientUnits="userSpaceOnUse">
<stop stop-color="white"/>
<stop offset="1" stop-color="white" stop-opacity="0.5"/>
</linearGradient>
<linearGradient id="paint2_linear_108_20757" x1="59.5625" y1="43.8092" x2="56.3951" y2="61.7721" gradientUnits="userSpaceOnUse">
<stop stop-color="white"/>
<stop offset="1" stop-color="white" stop-opacity="0.5"/>
</linearGradient>
</defs>
</svg>
