<?xml version="1.0" encoding="UTF-8" standalone="no"?>
<svg
   xmlns:dc="http://purl.org/dc/elements/1.1/"
   xmlns:cc="http://creativecommons.org/ns#"
   xmlns:rdf="http://www.w3.org/1999/02/22-rdf-syntax-ns#"
   xmlns:svg="http://www.w3.org/2000/svg"
   xmlns="http://www.w3.org/2000/svg"
   viewBox="0 0 74.666504 74.666664"
   height="74.666664"
   width="74.666504"
   xml:space="preserve"
   id="svg2"
   version="1.1"><metadata
     id="metadata8"><rdf:RDF><cc:Work
         rdf:about=""><dc:format>image/svg+xml</dc:format><dc:type
           rdf:resource="http://purl.org/dc/dcmitype/StillImage" /></cc:Work></rdf:RDF></metadata><defs
     id="defs6"><clipPath
       id="clipPath22"
       clipPathUnits="userSpaceOnUse"><path
         style="clip-rule:evenodd"
         id="path20"
         d="m 0,40 c 0,8.836555 7.163445,16 16,16 h 24 c 8.836555,0 16,-7.163445 16,-16 V 16 C 56,7.163445 48.836555,0 40,0 H 15.999999 C 7.163443,0 0,7.163445 0,16 Z" /></clipPath><clipPath
       id="clipPath38"
       clipPathUnits="userSpaceOnUse"><path
         style="clip-rule:evenodd"
         id="path36"
         d="m 28,27.25 c -3.17,0 -5.75,2.58 -5.75,5.75 0,3.169998 2.58,5.75 5.75,5.75 3.17,0 5.75,-2.580002 5.75,-5.75 0,-3.17 -2.58,-5.75 -5.75,-5.75 z m 0,10 c -2.34,0 -4.25,-1.91 -4.25,-4.25 0,-2.34 1.91,-4.25 4.25,-4.25 2.34,0 4.25,1.91 4.25,4.25 0,2.34 -1.91,4.25 -4.25,4.25 z" /></clipPath><clipPath
       id="clipPath54"
       clipPathUnits="userSpaceOnUse"><path
         style="clip-rule:evenodd"
         id="path52"
         d="m 19.410156,17.25 c -0.41,0 -0.75,0.34 -0.75,0.75 0,4.27 4.189997,7.75 9.339997,7.75 1.01,0 1.999992,-0.130024 2.959991,-0.400024 0.4,-0.110001 0.63002,-0.519984 0.52002,-0.919983 -0.110001,-0.4 -0.520014,-0.63002 -0.920014,-0.52002 -0.82,0.23 -1.679996,0.340027 -2.559997,0.340027 -4.32,0 -7.839997,-2.799999 -7.839997,-6.25 0,-0.41 -0.34,-0.75 -0.75,-0.75 z" /></clipPath><clipPath
       id="clipPath70"
       clipPathUnits="userSpaceOnUse"><path
         style="clip-rule:evenodd"
         id="path68"
         d="m 34,17.25 c -1.18,0 -2.300014,0.43998 -3.170013,1.22998 -0.350001,0.3 -0.659995,0.670018 -0.899994,1.080018 C 29.489992,20.279999 29.25,21.130001 29.25,22 c 0,1.25 0.479996,2.419998 1.339996,3.309998 0.9,0.93 2.110005,1.440002 3.410004,1.440002 1.360001,0 2.649998,-0.580017 3.529999,-1.580017 C 38.309998,24.299984 38.75,23.18 38.75,22 c 0,-0.380001 -0.05,-0.759995 -0.149994,-1.119995 -0.1,-0.450001 -0.290016,-0.920017 -0.550018,-1.330017 C 37.219986,18.12999 35.66,17.25 34,17.25 Z m 0,8 c -0.889999,0 -1.709988,-0.349981 -2.329987,-0.97998 C 31.080013,23.660019 30.75,22.860001 30.75,22 c 0,-0.59 0.160002,-1.169983 0.470001,-1.669983 0.16,-0.279999 0.369986,-0.529991 0.609986,-0.73999 C 32.429985,19.040028 33.200001,18.73999 34,18.73999 c 1.130001,0 2.199997,0.600006 2.779999,1.570008 0.169998,0.279998 0.299995,0.599971 0.369995,0.909973 0.07,0.260002 0.100006,0.510017 0.100006,0.770019 0,0.799999 -0.299995,1.569985 -0.839996,2.169983 C 35.810005,24.859974 34.93,25.25 34,25.25 Z" /></clipPath><clipPath
       id="clipPath86"
       clipPathUnits="userSpaceOnUse"><path
         style="clip-rule:evenodd"
         id="path84"
         d="m 35.499634,21.27002 h -2.98999 c -0.41,0 -0.75,0.34 -0.75,0.75 0,0.409999 0.34,0.75 0.75,0.75 h 2.98999 c 0.41,0 0.75,-0.340001 0.75,-0.75 0,-0.41 -0.34,-0.75 -0.75,-0.75 z" /></clipPath><clipPath
       id="clipPath102"
       clipPathUnits="userSpaceOnUse"><path
         style="clip-rule:evenodd"
         id="path100"
         d="m 33.999878,19.73999 c -0.41,0 -0.75,0.34 -0.75,0.75 v 2.98999 c 0,0.41 0.34,0.75 0.75,0.75 0.41,0 0.75,-0.34 0.75,-0.75 v -2.98999 c 0,-0.419998 -0.34,-0.75 -0.75,-0.75 z" /></clipPath></defs><g
     transform="matrix(1.3333333,0,0,-1.3333333,0,74.666667)"
     id="g10"><g
       id="g12"><path
         id="path14"
         style="fill:#ffffff;fill-opacity:1;fill-rule:nonzero;stroke:none"
         d="m 0,40 c 0,8.836555 7.163445,16 16,16 h 24 c 8.836555,0 16,-7.163445 16,-16 V 16 C 56,7.163445 48.836555,0 40,0 H 15.999999 C 7.163443,0 0,7.163445 0,16 Z" /></g><g
       id="g16"><g
         clip-path="url(#clipPath22)"
         id="g18"><g
           id="g24"><path
             id="path26"
             style="fill:#eaeae9;fill-opacity:1;fill-rule:nonzero;stroke:none"
             d="m 16,55 h 24 v 2 H 16 Z M 55,40 V 16 h 2 V 40 Z M 40,1 H 15.999999 V -1 H 40 Z M 1,16 V 40 H -1 V 16 Z M 15.999999,1 C 7.715728,1 1,7.715729 1,16 H -1 C -1,6.61116 6.611158,-1 15.999999,-1 Z M 55,16 C 55,7.715729 48.284271,1 40,1 v -2 c 9.38884,0 17,7.61116 17,17 z M 40,55 c 8.284271,0 15,-6.715729 15,-15 h 2 c 0,9.38884 -7.61116,17 -17,17 z M 16,57 C 6.61116,57 -1,49.38884 -1,40 h 2 c 0,8.284271 6.71573,15 15,15 z" /></g></g></g><g
       id="g28"><g
         transform="translate(22.25,27.25)"
         id="g30"><path
           id="path32"
           style="fill:#78378b;fill-opacity:1;fill-rule:nonzero;stroke:none"
           d="M 5.75,0 C 2.58,0 0,2.58 0,5.75 0,8.92 2.58,11.5 5.75,11.5 8.92,11.5 11.5,8.92 11.5,5.75 11.5,2.58 8.92,0 5.75,0 Z m 0,10 C 3.41,10 1.5,8.09 1.5,5.75 1.5,3.41 3.41,1.5 5.75,1.5 8.09,1.5 10,3.41 10,5.75 10,8.09 8.09,10 5.75,10 Z" /></g><g
         clip-path="url(#clipPath38)"
         id="g34"><g
           transform="translate(22.25,27.25)"
           id="g40"><path
             id="path42"
             style="fill:#78378b;fill-opacity:1;fill-rule:nonzero;stroke:none"
             d="M 5.75,1 C 3.132285,1 1,3.132285 1,5.75 H -1 C -1,2.027715 2.027715,-1 5.75,-1 Z M 1,5.75 c 0,2.617716 2.132285,4.75 4.75,4.75 v 2 C 2.027715,12.5 -1,9.472284 -1,5.75 Z m 4.75,4.75 c 2.617715,0 4.75,-2.132284 4.75,-4.75 h 2 c 0,3.722284 -3.027715,6.75 -6.75,6.75 z M 10.5,5.75 C 10.5,3.132285 8.367715,1 5.75,1 v -2 c 3.722285,0 6.75,3.027715 6.75,6.75 z M 5.75,11 C 2.857715,11 0.5,8.642284 0.5,5.75 h 2 C 2.5,7.537715 3.962285,9 5.75,9 Z M 0.5,5.75 C 0.5,2.857716 2.857715,0.5 5.75,0.5 v 2 C 3.962285,2.5 2.5,3.962285 2.5,5.75 Z M 5.75,0.5 C 8.642284,0.5 11,2.857716 11,5.75 H 9 C 9,3.962285 7.537715,2.5 5.75,2.5 Z M 11,5.75 C 11,8.642284 8.642284,11 5.75,11 V 9 C 7.537715,9 9,7.537715 9,5.75 Z" /></g></g></g><g
       id="g44"><g
         transform="translate(18.660156,17.25)"
         id="g46"><path
           id="path48"
           style="fill:#78378b;fill-opacity:1;fill-rule:nonzero;stroke:none"
           d="M 0.75,0 C 0.34,0 0,0.34 0,0.75 0,5.02 4.189996,8.5 9.339996,8.5 c 1.010001,0 1.999992,-0.130024 2.959992,-0.400024 0.399999,-0.110001 0.630019,-0.519983 0.520019,-0.919983 -0.109999,-0.4 -0.520013,-0.63002 -0.920013,-0.52002 C 11.079994,6.889973 10.219996,7 9.339996,7 5.019996,7 1.5,4.2 1.5,0.75 1.5,0.34 1.16,0 0.75,0 Z" /></g><g
         clip-path="url(#clipPath54)"
         id="g50"><g
           transform="translate(18.660156,17.25)"
           id="g56"><path
             id="path58"
             style="fill:#78378b;fill-opacity:1;fill-rule:nonzero;stroke:none"
             d="m 12.299988,8.099976 -0.27075,-0.962667 0.0056,-0.00154 0.265157,0.964206 z m -0.399994,-1.440003 -0.270069,-0.962854 0.0049,-0.00135 0.265157,0.964206 z M 1.5,0.75 h -1 z M 0.75,1 C 0.826372,1 0.888811,0.967902 0.928357,0.928357 0.967902,0.888811 1,0.826372 1,0.75 H -1 C -1,-0.212285 -0.212285,-1 0.75,-1 Z M 1,0.75 C 1,4.301391 4.559791,7.5 9.339996,7.5 v 2 C 3.820202,9.5 -1,5.738608 -1,0.75 Z M 9.339996,7.5 c 0.923501,0 1.822078,-0.118784 2.689247,-0.362675 l 0.54149,1.925302 C 11.517901,9.358735 10.436495,9.5 9.339996,9.5 Z m 2.694835,-0.36423 c -0.138939,0.038208 -0.213698,0.183309 -0.179029,0.309379 l 1.928411,-0.530313 c 0.254669,0.926071 -0.28013,1.891137 -1.219068,2.149345 z m -0.179029,0.309379 c 0.03822,0.138975 0.183314,0.213689 0.309349,0.179029 L 11.634837,5.695767 c 0.926035,-0.254659 1.891158,0.280095 2.149376,1.219069 z m 0.314257,0.177666 C 11.254689,7.879565 10.303199,8 9.339996,8 V 6 c 0.796798,0 1.565302,-0.099619 2.289933,-0.302869 z M 9.339996,8 C 4.691733,8 0.5,4.952382 0.5,0.75 h 2 C 2.5,3.447618 5.348259,6 9.339996,6 Z M 0.5,0.75 C 0.5,0.826372 0.532098,0.888811 0.571643,0.928357 0.611189,0.967902 0.673628,1 0.75,1 v -2 c 0.962285,0 1.75,0.787715 1.75,1.75 z" /></g></g></g><g
       id="g60"><g
         transform="translate(29.25,17.25)"
         id="g62"><path
           id="path64"
           style="fill:#78378b;fill-opacity:1;fill-rule:nonzero;stroke:none"
           d="M 4.75,0 C 3.57,0 2.449986,0.439981 1.579987,1.22998 1.229987,1.529981 0.919993,1.899998 0.679993,2.309998 0.239993,3.029998 0,3.88 0,4.75 0,6 0.479996,7.169998 1.339996,8.059998 2.239996,8.989998 3.45,9.5 4.75,9.5 6.11,9.5 7.399999,8.919983 8.279999,7.919983 9.059999,7.049983 9.5,5.93 9.5,4.75 9.5,4.37 9.450006,3.990005 9.350006,3.630005 9.250006,3.180005 9.059988,2.709988 8.799988,2.299988 7.969988,0.879988 6.41,0 4.75,0 Z m 0,8 C 3.86,8 3.040013,7.65002 2.420013,7.02002 1.830014,6.410019 1.5,5.61 1.5,4.75 1.5,4.16 1.660001,3.580017 1.970001,3.080017 c 0.16,-0.28 0.369986,-0.52999 0.609986,-0.73999 C 3.179986,1.790027 3.95,1.48999 4.75,1.48999 c 1.13,0 2.199999,0.600007 2.779999,1.570008 0.17,0.28 0.299995,0.599973 0.369995,0.909973 C 7.969994,4.229971 8,4.47999 8,4.73999 8,5.53999 7.700004,6.309973 7.160004,6.909973 6.560004,7.609973 5.68,8 4.75,8 Z" /></g><g
         clip-path="url(#clipPath70)"
         id="g66"><g
           transform="translate(29.25,17.25)"
           id="g72"><path
             id="path74"
             style="fill:#78378b;fill-opacity:1;fill-rule:nonzero;stroke:none"
             d="m 1.579987,1.22998 0.672249,0.740325 -0.010594,0.00962 -0.010864,0.00931 z m -0.899994,1.080018 0.863014,0.505179 -0.00479,0.00818 -0.00494,0.00809 -0.853282,-0.52145 z m 0.660003,5.75 -0.718602,0.695421 -5.21e-4,-5.38e-4 z M 8.279999,7.919983 7.529253,7.259327 7.535429,7.252438 Z M 9.350006,3.630005 8.386488,3.897649 8.379491,3.872458 8.373819,3.846935 Z M 8.799988,2.299988 7.955479,2.83553 7.945785,2.820243 7.93665,2.804615 Z M 2.420013,7.02002 1.707246,7.721473 1.701221,7.715245 Z M 1.970001,3.080017 2.838244,3.576156 2.82935,3.591721 2.819904,3.606957 Z m 0.609986,-0.73999 0.675724,0.737154 -0.00852,0.00781 -0.0087,0.00761 z m 4.950012,0.719971 -0.854807,0.51899 -0.00347,-0.0058 z M 7.899994,3.969971 6.934378,4.229944 6.92906,4.210188 6.924553,4.190232 Z M 7.160004,6.909973 6.400747,6.259182 6.408618,6.249999 6.416709,6.241009 Z M 4.75,1 C 3.822269,1 2.940972,1.344901 2.252236,1.970305 L 0.907737,0.489655 C 1.959001,-0.46494 3.317731,-1 4.75,-1 Z M 2.230778,1.989237 C 1.965636,2.216502 1.727202,2.500511 1.543007,2.815177 L -0.183022,1.804818 C 0.112783,1.299484 0.494337,0.843459 0.929195,0.470724 Z M 1.533275,2.831448 C 1.190382,3.392544 1,4.06177 1,4.75 H -1 C -1,3.69823 -0.710397,2.667451 -0.173289,1.788548 Z M 1,4.75 C 1,5.738203 1.377534,6.659753 2.059119,7.365115 L 0.620873,8.754881 C -0.417541,7.680242 -1,6.261797 -1,4.75 Z M 2.058599,7.364576 C 2.768698,8.098346 3.718723,8.5 4.75,8.5 v 2 C 3.181277,10.5 1.711294,9.881649 0.621394,8.755419 Z M 4.75,8.5 C 5.827417,8.5 6.842279,8.040044 7.529285,7.259355 L 9.030712,8.580611 C 7.957719,9.799922 6.392583,10.5 4.75,10.5 Z M 7.535429,7.252438 C 8.154551,6.561879 8.5,5.678285 8.5,4.75 h 2 c 0,1.431715 -0.534554,2.788086 -1.475431,3.837528 z M 8.5,4.75 C 8.5,4.45647 8.461235,4.166738 8.386488,3.897649 L 10.313524,3.362361 C 10.438777,3.813272 10.5,4.28353 10.5,4.75 Z M 8.373819,3.846935 C 8.298389,3.507504 8.152138,3.145646 7.955479,2.83553 L 9.644496,1.764446 c 0.323341,0.509884 0.557126,1.08806 0.681697,1.648628 z M 7.93665,2.804615 C 7.290019,1.698329 6.062738,1 4.75,1 v -2 c 2.007261,0 3.899957,1.061646 4.913325,2.795361 z M 4.75,9 C 3.587963,9 2.51239,8.539551 1.707273,7.721447 L 3.132754,6.318592 C 3.567637,6.760489 4.132037,7 4.75,7 Z M 1.701221,7.715245 C 0.933159,6.921146 0.5,5.872753 0.5,4.75 h 2 c 0,0.597248 0.226867,1.148892 0.638806,1.574795 z M 0.5,4.75 C 0.5,3.980071 0.708735,3.216567 1.120098,2.553077 l 1.699806,1.05388 C 2.611268,3.943467 2.5,4.339929 2.5,4.75 Z M 1.101758,2.583878 C 1.321,2.200204 1.604208,1.865065 1.921482,1.58745 L 3.238491,3.092604 C 3.075765,3.234989 2.939002,3.39983 2.838244,3.576156 Z M 1.904262,1.602873 C 2.686679,0.885657 3.697091,0.48999 4.75,0.48999 v 2 c -0.547091,0 -1.076705,0.204406 -1.494289,0.587191 z M 4.75,0.48999 c 1.477668,0 2.875616,0.781337 3.638271,2.056813 L 6.671726,3.573192 C 6.274382,2.908668 5.532332,2.48999 4.75,2.48999 Z M 8.384787,2.541019 C 8.609303,2.910811 8.780964,3.331338 8.875435,3.74971 L 6.924553,4.190232 C 6.879024,3.988603 6.790695,3.769184 6.675211,3.578976 Z M 8.86561,3.709997 C 8.960055,4.060794 9,4.398664 9,4.73999 H 7 C 7,4.561316 6.979933,4.399148 6.934378,4.229944 Z M 9,4.73999 C 9,5.792008 8.605201,6.799046 7.903298,7.578938 L 6.416709,6.241009 C 6.794806,5.8209 7,5.287972 7,4.73999 Z M 7.91926,7.560764 C 7.12138,8.491625 5.959567,9 4.75,9 V 7 C 5.400433,7 5.998627,6.728322 6.400747,6.259182 Z" /></g></g></g><g
       id="g76"><g
         transform="translate(31.759644,21.27002)"
         id="g78"><path
           id="path80"
           style="fill:#78378b;fill-opacity:1;fill-rule:nonzero;stroke:none"
           d="M 3.73999,0 H 0.75 C 0.34,0 0,0.34 0,0.75 0,1.16 0.34,1.5 0.75,1.5 h 2.98999 c 0.41,0 0.75,-0.34 0.75,-0.75 0,-0.41 -0.34,-0.75 -0.75,-0.75 z" /></g><g
         clip-path="url(#clipPath86)"
         id="g82"><g
           transform="translate(31.759644,21.27002)"
           id="g88"><path
             id="path90"
             style="fill:#78378b;fill-opacity:1;fill-rule:nonzero;stroke:none"
             d="M 3.73999,1 H 0.75 V -1 H 3.73999 Z M 0.75,1 C 0.826372,1 0.888811,0.967902 0.928357,0.928357 0.967902,0.888811 1,0.826372 1,0.75 H -1 C -1,-0.212285 -0.212285,-1 0.75,-1 Z M 1,0.75 C 1,0.673628 0.967902,0.611189 0.928357,0.571643 0.888811,0.532098 0.826372,0.5 0.75,0.5 v 2 C -0.212285,2.5 -1,1.712285 -1,0.75 Z M 0.75,0.5 h 2.98999 v 2 H 0.75 Z m 2.98999,0 C 3.663619,0.5 3.601179,0.532098 3.561633,0.571643 3.522088,0.611189 3.48999,0.673628 3.48999,0.75 h 2 c 0,0.962285 -0.787715,1.75 -1.75,1.75 z m -0.25,0.25 c 0,0.076372 0.032098,0.138811 0.071643,0.178357 C 3.601179,0.967902 3.663619,1 3.73999,1 v -2 c 0.962285,0 1.75,0.787715 1.75,1.75 z" /></g></g></g><g
       id="g92"><g
         transform="translate(33.249878,19.73999)"
         id="g94"><path
           id="path96"
           style="fill:#78378b;fill-opacity:1;fill-rule:nonzero;stroke:none"
           d="M 0.75,0 C 0.34,0 0,0.34 0,0.75 v 2.98999 c 0,0.41 0.34,0.75 0.75,0.75 0.41,0 0.75,-0.34 0.75,-0.75 V 0.75 C 1.5,0.33 1.16,0 0.75,0 Z" /></g><g
         clip-path="url(#clipPath102)"
         id="g98"><g
           transform="translate(33.249878,19.73999)"
           id="g104"><path
             id="path106"
             style="fill:#78378b;fill-opacity:1;fill-rule:nonzero;stroke:none"
             d="M 0.75,1 C 0.826372,1 0.888811,0.967902 0.928357,0.928357 0.967902,0.888811 1,0.826372 1,0.75 H -1 C -1,-0.212285 -0.212285,-1 0.75,-1 Z M 1,0.75 V 3.73999 H -1 V 0.75 Z M 1,3.73999 C 1,3.663619 0.967902,3.601179 0.928357,3.561634 0.888811,3.522088 0.826372,3.48999 0.75,3.48999 v 2 c -0.962285,0 -1.75,-0.787715 -1.75,-1.75 z m -0.25,-0.25 c -0.076372,0 -0.138811,0.032098 -0.178357,0.071644 C 0.532098,3.601179 0.5,3.663619 0.5,3.73999 h 2 c 0,0.962285 -0.787715,1.75 -1.75,1.75 z m -0.25,0.25 V 0.75 h 2 V 3.73999 Z M 0.5,0.75 C 0.5,0.890954 0.616425,1 0.75,1 v -2 c 0.953575,0 1.75,0.769046 1.75,1.75 z" /></g></g></g></g></svg>