<svg width="56" height="56" viewBox="0 0 56 56" fill="none" xmlns="http://www.w3.org/2000/svg">
<rect x="0.5" y="0.5" width="55" height="55" rx="15.5" fill="white"/>
<rect x="0.5" y="0.5" width="55" height="55" rx="15.5" stroke="#F2EBF3"/>
<path d="M20.9791 34.1993L20.9789 34.1991C20.4856 33.8313 20.0234 33.244 19.6842 32.5692C19.345 31.8943 19.15 31.1738 19.15 30.5599V23.1199C19.15 21.7874 20.1515 20.3351 21.4045 19.8685L21.4055 19.8681L26.395 17.9983C26.3951 17.9983 26.3952 17.9982 26.3953 17.9982C26.8188 17.84 27.3932 17.7524 27.99 17.7524C28.5868 17.7524 29.1613 17.84 29.5848 17.9983C29.5849 17.9983 29.5849 17.9983 29.585 17.9983L34.5848 19.8683L34.5855 19.8685C35.8385 20.3351 36.84 21.7874 36.84 23.1199V30.5499C36.84 31.1638 36.6449 31.8843 36.3057 32.5592C35.9666 33.234 35.5044 33.8213 35.0111 34.1891L35.0109 34.1893L30.7109 37.3993L30.7109 37.3993L30.707 37.4022C29.9661 37.9667 28.9967 38.2599 28 38.2599C27.004 38.2599 26.0318 37.967 25.2782 37.4086C25.278 37.4085 25.2779 37.4084 25.2777 37.4082L20.9791 34.1993ZM26.5752 18.4715L26.5745 18.4717L21.5856 20.3413C21.5855 20.3414 21.5853 20.3415 21.5851 20.3415C21.036 20.546 20.5586 20.9745 20.2217 21.4598C19.8847 21.9453 19.65 22.543 19.65 23.1299V30.5599C19.65 31.1377 19.8489 31.7859 20.1317 32.3502C20.4145 32.9143 20.8133 33.4589 21.2708 33.8006L21.2709 33.8006L25.5706 37.0104C26.2495 37.5181 27.1362 37.7549 27.995 37.7549C28.8538 37.7549 29.7405 37.5181 30.4194 37.0104L34.7191 33.8006L34.72 33.7999C35.1821 33.4533 35.5808 32.9064 35.8624 32.3419C36.144 31.7774 36.34 31.1321 36.34 30.5599V23.1199C36.34 22.537 36.1045 21.9418 35.7682 21.4573C35.4317 20.9725 34.9556 20.5428 34.4091 20.3331L34.4091 20.3331L34.4055 20.3317L29.4155 18.4617L29.4155 18.4617L29.4109 18.46C29.0065 18.313 28.4878 18.2498 27.9974 18.2512C27.5069 18.2525 26.9851 18.3186 26.5752 18.4715Z" fill="#78378B" stroke="#78378B"/>
<path d="M28 28.75C26.7561 28.75 25.75 27.7439 25.75 26.5C25.75 25.2561 26.7561 24.25 28 24.25C29.2439 24.25 30.25 25.2561 30.25 26.5C30.25 27.7439 29.2439 28.75 28 28.75ZM28 24.75C27.0339 24.75 26.25 25.5339 26.25 26.5C26.25 27.4661 27.0339 28.25 28 28.25C28.9661 28.25 29.75 27.4661 29.75 26.5C29.75 25.5339 28.9661 24.75 28 24.75Z" fill="#78378B" stroke="#78378B"/>
<path d="M28 31.75C27.8661 31.75 27.75 31.6339 27.75 31.5V28.5C27.75 28.3661 27.8661 28.25 28 28.25C28.1339 28.25 28.25 28.3661 28.25 28.5V31.5C28.25 31.6339 28.1339 31.75 28 31.75Z" fill="#78378B" stroke="#78378B"/>
</svg>
