<svg width="56" height="56" viewBox="0 0 56 56" fill="none" xmlns="http://www.w3.org/2000/svg">
<rect x="0.5" y="0.5" width="55" height="55" rx="15.5" fill="white"/>
<rect x="0.5" y="0.5" width="55" height="55" rx="15.5" stroke="#F2EBF3"/>
<path d="M24 18V21" stroke="#2D2A26" stroke-width="1.5" stroke-miterlimit="10" stroke-linecap="round" stroke-linejoin="round"/>
<path d="M32 18V21" stroke="#2D2A26" stroke-width="1.5" stroke-miterlimit="10" stroke-linecap="round" stroke-linejoin="round"/>
<path d="M19.5 25.09H36.5" stroke="#2D2A26" stroke-width="1.5" stroke-miterlimit="10" stroke-linecap="round" stroke-linejoin="round"/>
<path d="M37 24.5V33C37 36 35.5 38 32 38H24C20.5 38 19 36 19 33V24.5C19 21.5 20.5 19.5 24 19.5H32C35.5 19.5 37 21.5 37 24.5Z" stroke="#2D2A26" stroke-width="1.5" stroke-miterlimit="10" stroke-linecap="round" stroke-linejoin="round"/>
<path d="M27.9955 29.7H28.0045" stroke="#2D2A26" stroke-width="2" stroke-linecap="round" stroke-linejoin="round"/>
<path d="M24.2943 29.7H24.3033" stroke="#2D2A26" stroke-width="2" stroke-linecap="round" stroke-linejoin="round"/>
<path d="M24.2943 32.7H24.3033" stroke="#2D2A26" stroke-width="2" stroke-linecap="round" stroke-linejoin="round"/>
</svg>
