<svg width="40" height="41" viewBox="0 0 40 41" fill="none" xmlns="http://www.w3.org/2000/svg">
<rect x="0.5" y="1" width="39" height="39" rx="9.5" fill="white"/>
<rect x="0.5" y="1" width="39" height="39" rx="9.5" stroke="#EAEAE9"/>
<path d="M20 13.9458C22.1205 13.9458 22.4096 13.9458 23.2771 13.9458C24.0482 13.9458 24.4337 14.1386 24.7229 14.2349C25.1084 14.4277 25.3976 14.5241 25.6867 14.8133C25.9759 15.1024 26.1687 15.3916 26.2651 15.7771C26.3614 16.0663 26.4578 16.4518 26.5542 17.2229C26.5542 18.0904 26.5542 18.2831 26.5542 20.5C26.5542 22.7169 26.5542 22.9096 26.5542 23.7771C26.5542 24.5482 26.3614 24.9337 26.2651 25.2229C26.0723 25.6084 25.9759 25.8976 25.6867 26.1867C25.3976 26.4759 25.1084 26.6687 24.7229 26.7651C24.4337 26.8614 24.0482 26.9578 23.2771 27.0542C22.4096 27.0542 22.2169 27.0542 20 27.0542C17.7831 27.0542 17.5904 27.0542 16.7229 27.0542C15.9518 27.0542 15.5663 26.8614 15.2771 26.7651C14.8916 26.5723 14.6024 26.4759 14.3133 26.1867C14.0241 25.8976 13.8313 25.6084 13.7349 25.2229C13.6386 24.9337 13.5422 24.5482 13.4458 23.7771C13.4458 22.9096 13.4458 22.7169 13.4458 20.5C13.4458 18.2831 13.4458 18.0904 13.4458 17.2229C13.4458 16.4518 13.6386 16.0663 13.7349 15.7771C13.9277 15.3916 14.0241 15.1024 14.3133 14.8133C14.6024 14.5241 14.8916 14.3313 15.2771 14.2349C15.5663 14.1386 15.9518 14.0422 16.7229 13.9458C17.5904 13.9458 17.8795 13.9458 20 13.9458ZM20 12.5C17.7831 12.5 17.5904 12.5 16.7229 12.5C15.8554 12.5 15.2771 12.6928 14.7952 12.8855C14.3133 13.0783 13.8313 13.3675 13.3494 13.8494C12.8675 14.3313 12.6747 14.7169 12.3855 15.2952C12.1928 15.7771 12.0964 16.3554 12 17.2229C12 18.0904 12 18.3795 12 20.5C12 22.7169 12 22.9096 12 23.7771C12 24.6446 12.1928 25.2229 12.3855 25.7048C12.5783 26.1867 12.8675 26.6687 13.3494 27.1506C13.8313 27.6325 14.2169 27.8253 14.7952 28.1145C15.2771 28.3072 15.8554 28.4036 16.7229 28.5C17.5904 28.5 17.8795 28.5 20 28.5C22.1205 28.5 22.4096 28.5 23.2771 28.5C24.1446 28.5 24.7229 28.3072 25.2048 28.1145C25.6867 27.9217 26.1687 27.6325 26.6506 27.1506C27.1325 26.6687 27.3253 26.2831 27.6145 25.7048C27.8072 25.2229 27.9036 24.6446 28 23.7771C28 22.9096 28 22.6205 28 20.5C28 18.3795 28 18.0904 28 17.2229C28 16.3554 27.8072 15.7771 27.6145 15.2952C27.4217 14.8133 27.1325 14.3313 26.6506 13.8494C26.1687 13.3675 25.7831 13.1747 25.2048 12.8855C24.7229 12.6928 24.1446 12.5964 23.2771 12.5C22.4096 12.5 22.2169 12.5 20 12.5Z" fill="#1F2937"/>
<path d="M20 16.3554C17.6867 16.3554 15.8554 18.1867 15.8554 20.5C15.8554 22.8133 17.6867 24.6446 20 24.6446C22.3133 24.6446 24.1446 22.8133 24.1446 20.5C24.1446 18.1867 22.3133 16.3554 20 16.3554ZM20 23.1988C18.5542 23.1988 17.3012 22.0422 17.3012 20.5C17.3012 19.0542 18.4578 17.8012 20 17.8012C21.4458 17.8012 22.6988 18.9578 22.6988 20.5C22.6988 21.9458 21.4458 23.1988 20 23.1988Z" fill="#1F2937"/>
<path d="M24.241 17.2229C24.7733 17.2229 25.2048 16.7914 25.2048 16.259C25.2048 15.7267 24.7733 15.2952 24.241 15.2952C23.7086 15.2952 23.2771 15.7267 23.2771 16.259C23.2771 16.7914 23.7086 17.2229 24.241 17.2229Z" fill="#1F2937"/>
</svg>
