<svg width="40" height="41" viewBox="0 0 40 41" fill="none" xmlns="http://www.w3.org/2000/svg">
<rect x="0.5" y="1" width="39" height="39" rx="9.5" fill="white"/>
<rect x="0.5" y="1" width="39" height="39" rx="9.5" stroke="#EAEAE9"/>
<path d="M15.6126 17.7671H12.2695V28.429H15.6126V17.7671Z" fill="#1F2937"/>
<path d="M24.6579 17.5322C24.5346 17.5168 24.4037 17.5091 24.2727 17.5014C22.4009 17.4243 21.3456 18.5337 20.9759 19.0113C20.8757 19.1423 20.8295 19.2193 20.8295 19.2193V17.7941H17.6328V28.456H20.8295H20.9759C20.9759 27.3698 20.9759 26.2913 20.9759 25.2051C20.9759 24.6196 20.9759 24.0341 20.9759 23.4486C20.9759 22.7245 20.922 21.9541 21.284 21.2916C21.5921 20.7369 22.1467 20.4596 22.7707 20.4596C24.6194 20.4596 24.6579 22.1313 24.6579 22.2854C24.6579 22.2931 24.6579 22.3008 24.6579 22.3008V28.5022H28.0009V21.5458C28.0009 19.1654 26.7916 17.7633 24.6579 17.5322Z" fill="#1F2937"/>
<path d="M13.9392 16.3861C15.0112 16.3861 15.8803 15.5169 15.8803 14.4447C15.8803 13.3726 15.0112 12.5034 13.9392 12.5034C12.8671 12.5034 11.998 13.3726 11.998 14.4447C11.998 15.5169 12.8671 16.3861 13.9392 16.3861Z" fill="#1F2937"/>
</svg>
