<svg width="32" height="33" viewBox="0 0 32 33" fill="none" xmlns="http://www.w3.org/2000/svg">
<rect x="0.5" y="1.21851" width="31" height="31" rx="7.5" fill="white"/>
<rect x="0.5" y="1.21851" width="31" height="31" rx="7.5" stroke="#EAEAE9"/>
<path d="M23.3356 16.7185C23.3356 12.6705 20.0503 9.38519 16.0023 9.38519C11.9543 9.38519 8.66895 12.6705 8.66895 16.7185C8.66895 20.2679 11.1916 23.2232 14.5356 23.9052V18.9185H13.0689V16.7185H14.5356V14.8852C14.5356 13.4699 15.6869 12.3185 17.1023 12.3185H18.9356V14.5185H17.4689C17.0656 14.5185 16.7356 14.8485 16.7356 15.2519V16.7185H18.9356V18.9185H16.7356V24.0152C20.4389 23.6485 23.3356 20.5245 23.3356 16.7185Z" fill="#817F7D"/>
</svg>
