<svg width="32" height="33" viewBox="0 0 32 33" fill="none" xmlns="http://www.w3.org/2000/svg">
<rect x="0.5" y="1.21851" width="31" height="31" rx="7.5" fill="white"/>
<rect x="0.5" y="1.21851" width="31" height="31" rx="7.5" stroke="#EAEAE9"/>
<path d="M16.7546 9.38519C17.5796 9.38739 17.9983 9.39179 18.3599 9.40206L18.5021 9.40719C18.6664 9.41306 18.8285 9.42039 19.0243 9.42919C19.8045 9.46586 20.3369 9.58906 20.8041 9.77019C21.2881 9.95646 21.6958 10.2087 22.1035 10.6157C22.4764 10.9823 22.765 11.4258 22.9491 11.9152C23.1302 12.3823 23.2534 12.9147 23.2901 13.6957C23.2989 13.8908 23.3062 14.0529 23.3121 14.2179L23.3165 14.3601C23.3275 14.7209 23.3319 15.1397 23.3334 15.9647L23.3341 16.5117V17.4724C23.3359 18.0073 23.3303 18.5422 23.3172 19.0769L23.3128 19.2192C23.307 19.3842 23.2996 19.5463 23.2908 19.7413C23.2541 20.5223 23.1295 21.054 22.9491 21.5219C22.7655 22.0116 22.4769 22.4551 22.1035 22.8213C21.7369 23.1941 21.2934 23.4826 20.8041 23.6669C20.3369 23.848 19.8045 23.9712 19.0243 24.0079C18.8503 24.0161 18.6762 24.0234 18.5021 24.0299L18.3599 24.0343C17.9983 24.0445 17.5796 24.0497 16.7546 24.0511L16.2075 24.0519H15.2476C14.7125 24.0537 14.1773 24.0481 13.6423 24.035L13.5001 24.0306C13.326 24.024 13.1519 24.0164 12.9779 24.0079C12.1977 23.9712 11.6653 23.848 11.1974 23.6669C10.708 23.4831 10.2648 23.1945 9.89868 22.8213C9.52545 22.4549 9.23665 22.0114 9.05242 21.5219C8.87128 21.0547 8.74808 20.5223 8.71142 19.7413C8.70325 19.5673 8.69591 19.3933 8.68942 19.2192L8.68575 19.0769C8.67223 18.5422 8.66612 18.0073 8.66742 17.4724V15.9647C8.66537 15.4298 8.67075 14.8949 8.68355 14.3601L8.68868 14.2179C8.69455 14.0529 8.70188 13.8908 8.71068 13.6957C8.74735 12.9147 8.87055 12.3831 9.05168 11.9152C9.23583 11.4253 9.52521 10.9817 9.89942 10.6157C10.2654 10.2428 10.7084 9.95425 11.1974 9.77019C11.6653 9.58906 12.1969 9.46586 12.9779 9.42919C13.173 9.42039 13.3358 9.41306 13.5001 9.40719L13.6423 9.40279C14.1771 9.38976 14.712 9.38414 15.2469 9.38593L16.7546 9.38519ZM16.0007 13.0519C15.0283 13.0519 14.0957 13.4382 13.408 14.1258C12.7204 14.8134 12.3341 15.7461 12.3341 16.7185C12.3341 17.691 12.7204 18.6236 13.408 19.3113C14.0957 19.9989 15.0283 20.3852 16.0007 20.3852C16.9732 20.3852 17.9058 19.9989 18.5935 19.3113C19.2811 18.6236 19.6674 17.691 19.6674 16.7185C19.6674 15.7461 19.2811 14.8134 18.5935 14.1258C17.9058 13.4382 16.9732 13.0519 16.0007 13.0519ZM16.0007 14.5185C16.2897 14.5185 16.5757 14.5753 16.8427 14.6859C17.1096 14.7964 17.3522 14.9584 17.5565 15.1626C17.7608 15.3669 17.9229 15.6094 18.0335 15.8763C18.1441 16.1432 18.2011 16.4293 18.2011 16.7182C18.2012 17.0071 18.1443 17.2932 18.0338 17.5601C17.9233 17.827 17.7613 18.0696 17.557 18.2739C17.3528 18.4782 17.1103 18.6403 16.8434 18.7509C16.5765 18.8615 16.2904 18.9185 16.0015 18.9185C15.418 18.9185 14.8584 18.6867 14.4458 18.2742C14.0333 17.8616 13.8015 17.302 13.8015 16.7185C13.8015 16.1351 14.0333 15.5755 14.4458 15.1629C14.8584 14.7503 15.418 14.5185 16.0015 14.5185M19.8515 11.9519C19.6084 11.9519 19.3752 12.0484 19.2033 12.2203C19.0314 12.3923 18.9348 12.6254 18.9348 12.8685C18.9348 13.1116 19.0314 13.3448 19.2033 13.5167C19.3752 13.6886 19.6084 13.7852 19.8515 13.7852C20.0946 13.7852 20.3278 13.6886 20.4997 13.5167C20.6716 13.3448 20.7681 13.1116 20.7681 12.8685C20.7681 12.6254 20.6716 12.3923 20.4997 12.2203C20.3278 12.0484 20.0946 11.9519 19.8515 11.9519Z" fill="#817F7D"/>
</svg>
