<svg width="57" height="56" viewBox="0 0 57 56" fill="none" xmlns="http://www.w3.org/2000/svg">
<rect x="1.16675" y="0.5" width="55" height="55" rx="15.5" fill="white"/>
<rect x="1.16675" y="0.5" width="55" height="55" rx="15.5" stroke="#EAEAE9"/>
<path d="M18.6667 24.5C18.6667 21 20.6667 19.5 23.6667 19.5H33.6667C36.6667 19.5 38.6667 21 38.6667 24.5V27.5" stroke="#78378B" stroke-width="1.5" stroke-miterlimit="10" stroke-linecap="round" stroke-linejoin="round"/>
<path d="M28.6667 36.5H23.6667C20.6667 36.5 18.6667 35 18.6667 31.5V28.44" stroke="#78378B" stroke-width="1.5" stroke-miterlimit="10" stroke-linecap="round" stroke-linejoin="round"/>
<path d="M33.6667 25L30.5367 27.5C29.5067 28.32 27.8167 28.32 26.7867 27.5L23.6667 25" stroke="#78378B" stroke-width="1.5" stroke-miterlimit="10" stroke-linecap="round" stroke-linejoin="round"/>
<path d="M34.8668 37.4C36.6341 37.4 38.0667 35.9673 38.0667 34.2C38.0667 32.4327 36.6341 31 34.8668 31C33.0994 31 31.6667 32.4327 31.6667 34.2C31.6667 35.9673 33.0994 37.4 34.8668 37.4Z" stroke="#78378B" stroke-width="1.5" stroke-linecap="round" stroke-linejoin="round"/>
<path d="M38.6667 38L37.6667 37" stroke="#78378B" stroke-width="1.5" stroke-linecap="round" stroke-linejoin="round"/>
</svg>
