<svg width="374" height="185" viewBox="0 0 374 185" fill="none" xmlns="http://www.w3.org/2000/svg">
<g clip-path="url(#clip0_1_5577)">
<path d="M186.501 46.7595C163.119 46.7595 144.128 65.7628 144.128 89.1449C144.128 112.527 163.119 131.517 186.501 131.517C209.883 131.517 228.873 112.527 228.873 89.1449C228.873 65.7628 209.883 46.7595 186.501 46.7595ZM186.501 50.2916C207.975 50.2916 225.341 67.6712 225.341 89.1449C225.341 110.619 207.975 127.985 186.501 127.985C165.027 127.985 147.661 110.619 147.661 89.1449C147.661 67.6712 165.027 50.2916 186.501 50.2916Z" fill="#2D2A26"/>
<path d="M186.501 57.3558C168.969 57.3558 154.725 71.6135 154.725 89.1449C154.725 106.676 168.969 120.921 186.501 120.921C204.032 120.921 218.277 106.676 218.277 89.1449C218.277 71.6135 204.032 57.3558 186.501 57.3558ZM186.501 60.888C202.124 60.888 214.745 73.522 214.745 89.1449C214.745 104.768 202.124 117.389 186.501 117.389C170.878 117.389 158.244 104.768 158.244 89.1449C158.244 73.522 170.878 60.888 186.501 60.888Z" fill="#2D2A26"/>
<path d="M153.122 113.414L136.543 142.127C136.375 142.421 136.296 142.757 136.314 143.095C136.331 143.433 136.446 143.758 136.644 144.033C136.842 144.308 137.114 144.52 137.429 144.644C137.744 144.768 138.088 144.799 138.42 144.733L155.311 141.397L160.864 157.702C160.972 158.024 161.172 158.309 161.438 158.521C161.705 158.732 162.027 158.863 162.366 158.896C162.704 158.929 163.045 158.863 163.348 158.707C163.65 158.551 163.901 158.31 164.07 158.015L180.31 129.888L177.247 128.116L162.949 152.866L158.153 138.79C158.014 138.387 157.735 138.048 157.366 137.835C156.997 137.621 156.564 137.549 156.145 137.63L141.548 140.511L156.171 115.186L153.122 113.414Z" fill="#2D2A26"/>
<path d="M219.88 113.414L216.83 115.186L231.454 140.511L216.856 137.63C216.438 137.549 216.005 137.621 215.636 137.835C215.267 138.048 214.987 138.387 214.849 138.79L210.053 152.866L195.755 128.116L192.692 129.888L208.932 158.015C209.101 158.31 209.352 158.551 209.654 158.707C209.956 158.863 210.297 158.929 210.636 158.896C210.975 158.863 211.297 158.732 211.563 158.521C211.83 158.309 212.029 158.025 212.138 157.702L217.69 141.397L234.582 144.733C234.914 144.799 235.258 144.768 235.573 144.644C235.888 144.52 236.16 144.308 236.358 144.033C236.556 143.758 236.67 143.433 236.688 143.095C236.706 142.757 236.626 142.421 236.459 142.127L219.88 113.414Z" fill="#2D2A26"/>
<path d="M186.501 69.4772C185.248 69.4772 185.034 70.0254 184.702 70.3635C182.773 72.5938 180.177 77.1858 179.215 78.705C175.969 79.5171 172.521 80.188 169.596 81.3378C169.172 81.5492 168.589 81.5931 168.202 82.7845C167.815 83.9759 168.257 84.3453 168.475 84.7656C169.898 87.1481 173.94 91.6246 174.718 92.5597C174.521 96.1149 174.031 99.3184 174.249 102.517C174.319 102.986 174.174 103.554 175.188 104.29C176.201 105.026 176.701 104.72 177.169 104.642C179.949 103.969 184.94 101.744 186.501 101.123C189.633 102.314 192.747 103.847 195.833 104.642C196.3 104.72 196.801 105.026 197.814 104.29C198.828 103.554 198.682 102.986 198.753 102.517C198.989 99.7626 198.364 93.7694 198.283 92.5597C200.088 90.4495 202.019 88.1878 203.718 86.0168C204.689 84.9633 205.084 83.8437 204.8 82.7845C204.516 81.7248 203.83 81.5492 203.406 81.3378C200.288 80.1023 196.983 79.5119 193.787 78.705C191.948 75.8988 190.334 72.8211 188.3 70.3635C187.967 70.0254 187.754 69.4772 186.501 69.4772ZM186.501 73.7652C188.052 76.029 189.352 78.3305 190.828 80.5818C191.066 80.9175 191.149 81.1489 191.714 81.5594C192.279 81.9698 192.508 81.971 192.9 82.0937C195.541 82.7986 198.117 83.3718 200.721 84.1009C199.066 86.2898 197.264 88.227 195.585 90.331C195.34 90.6612 195.149 90.8008 194.934 91.4649C194.718 92.1291 194.786 92.3568 194.79 92.7683C194.921 95.5033 195.175 98.1305 195.299 100.836C192.367 99.8216 189.236 98.1768 186.501 97.5908C185.803 97.5908 185.614 97.7329 185.224 97.8645C182.663 98.8315 180.237 99.8846 177.703 100.836C177.79 98.0886 178.087 95.4628 178.212 92.7683C178.216 92.3568 178.284 92.1291 178.068 91.4649C177.852 90.8008 177.662 90.6612 177.416 90.331C175.741 88.2212 173.757 85.9805 172.281 84.1009C174.912 83.3229 177.503 82.7933 180.101 82.0937C180.494 81.971 180.722 81.9698 181.287 81.5594C181.852 81.1489 181.936 80.9175 182.174 80.5818C183.105 79.2096 184.013 77.6721 184.807 76.372C185.414 75.3834 186.006 74.4626 186.501 73.7652Z" fill="#2D2A26"/>
</g>
<defs>
<clipPath id="clip0_1_5577">
<rect width="113" height="113" fill="white" transform="translate(130 45)"/>
</clipPath>
</defs>
</svg>
